<svg aria-hidden="true" style="position: absolute; width: 0; height: 0; overflow: hidden;" version="1.1" xmlns="http://www.w3.org/2000/svg" xmlns:xlink="http://www.w3.org/1999/xlink">
<defs>
<symbol id="icon-x" viewBox="0 0 32 32">
<path d="M25.201 1.537h4.907l-10.72 12.253 12.612 16.671h-9.875l-7.733-10.112-8.851 10.112h-4.909l11.467-13.107-12.099-15.816h10.125l6.991 9.243zM23.48 27.525h2.719l-17.551-23.205h-2.917z"></path>
</symbol>
<symbol id="icon-close" viewBox="0 0 32 32">
<path fill="#fff" style="fill: var(--color1, #fff)" d="M32 16c0 8.837-7.163 16-16 16s-16-7.163-16-16c0-8.837 7.163-16 16-16s16 7.163 16 16z"></path>
<path fill="none" stroke="#000" style="stroke: var(--color2, #000)" stroke-linejoin="miter" stroke-linecap="butt" stroke-miterlimit="4" stroke-width="1.0667" d="M31.467 16c0 8.542-6.925 15.467-15.467 15.467s-15.467-6.925-15.467-15.467c0-8.542 6.925-15.467 15.467-15.467s15.467 6.925 15.467 15.467z"></path>
<path fill="#000" style="fill: var(--color2, #000)" d="M21.9 11.282l-1.182-1.182-4.685 4.685-4.685-4.685-1.182 1.182 4.685 4.685-4.685 4.685 1.182 1.182 4.685-4.685 4.685 4.685 1.182-1.182-4.685-4.685 4.685-4.685z"></path>
</symbol>
<symbol id="icon-nintendo" viewBox="0 0 32 32">
<path d="M5.929 16.728l-1.603-2.589h-1.152v3.724h1.152v-2.589l1.603 2.589h1.141v-3.724h-1.151l0.009 2.589zM15.033 15.393v-0.372h-0.601v-0.501h-1.121v0.501h-0.611v0.372h0.611v2.469h1.121v-2.469h0.601zM7.712 17.852h1.112v-2.469h-1.112v2.469zM7.712 14.901h1.121v-0.763h-1.121v0.763zM27.263 15.212c-0.901 0-1.632 0.623-1.632 1.385s0.731 1.385 1.632 1.385c0.901 0 1.633-0.623 1.633-1.385s-0.732-1.385-1.633-1.385zM27.713 17.12c0 0.391-0.231 0.552-0.451 0.552s-0.461-0.161-0.461-0.552v-1.044c0-0.392 0.231-0.552 0.461-0.552 0.22 0 0.451 0.16 0.451 0.552v1.044zM24.168 15.504c-0.18-0.116-0.394-0.195-0.624-0.221l-0.007-0.001c-0.801-0.071-1.423 0.643-1.423 1.295 0 0.864 0.661 1.175 0.761 1.225 0.38 0.171 0.861 0.18 1.281-0.091v0.14h1.103v-3.713h-1.103c0.011 0 0.011 0.793 0.011 1.365zM24.179 16.608v0.441c0 0.381-0.261 0.481-0.441 0.481s-0.441-0.1-0.441-0.481v-0.883c0-0.383 0.261-0.483 0.441-0.483 0.171 0 0.44 0.1 0.44 0.483v0.441h0.001zM11.437 15.273c-0.346 0.011-0.658 0.15-0.891 0.371l0.001-0.001v-0.261h-1.112v2.469h1.112v-1.625c0-0.211 0.229-0.452 0.531-0.452 0.3 0 0.511 0.241 0.511 0.452v1.625h1.112v-1.344c0-0.975-0.841-1.256-1.263-1.235zM20.501 15.273c-0.346 0.010-0.658 0.149-0.891 0.371l0.001-0.001v-0.261h-1.112v2.469h1.112v-1.625c0-0.211 0.231-0.452 0.531-0.452s0.511 0.241 0.511 0.452v1.625h1.112v-1.344c0-0.975-0.841-1.256-1.263-1.235zM18.168 16.628c0-0.763-0.741-1.405-1.643-1.405-0.911 0-1.643 0.623-1.643 1.385s0.732 1.385 1.643 1.385c0.752 0 1.392-0.432 1.583-1.013h-1.112v0.149c0 0.452-0.3 0.552-0.46 0.552-0.171 0-0.471-0.1-0.471-0.551v-0.513l2.103 0.011zM16.145 15.755c0.082-0.133 0.226-0.22 0.39-0.221h0c0.149 0 0.3 0.071 0.391 0.221 0.069 0.12 0.069 0.271 0.069 0.481h-0.931c0-0.211 0.009-0.351 0.080-0.481zM29.336 14.6c0-0.12-0.091-0.18-0.271-0.18h-0.251v0.632h0.151v-0.261h0.080l0.12 0.261h0.171l-0.14-0.281c0.089-0.029 0.14-0.091 0.14-0.171zM29.045 14.691h-0.080v-0.181h0.069c0.091 0 0.14 0.031 0.14 0.091 0 0.071-0.039 0.091-0.129 0.091zM29.055 14.168c-0.315 0.004-0.568 0.259-0.571 0.573v0c0 0.311 0.261 0.572 0.572 0.572 0.316 0 0.573-0.256 0.573-0.573s-0.256-0.573-0.573-0.573v0h-0.001zM29.055 15.203c-0.253-0.004-0.457-0.208-0.46-0.461v-0c0.002-0.254 0.207-0.46 0.461-0.463h0c0.253 0.004 0.458 0.209 0.46 0.462v0c-0.003 0.253-0.207 0.458-0.46 0.461h-0.002zM27.804 12.051h-23.628c-2.504-0.011-4.176 1.797-4.176 3.955s1.672 3.945 4.187 3.945h23.627c2.515 0 4.187-1.787 4.187-3.945-0.009-2.157-1.692-3.955-4.196-3.955zM27.793 18.987h-23.607c-1.993 0.011-3.205-1.335-3.205-2.981s1.223-2.971 3.205-2.981h23.607c1.983 0 3.205 1.335 3.205 2.981s-1.212 2.981-3.205 2.981z"></path>
</symbol>
<symbol id="icon-unilever" viewBox="0 0 32 32">
<path d="M28.581 8.834c0.153 1.129 1.856 2.653 2.328 2.615 0.313-0.025 0.427-1.473 0.427-2.615 0-0.651 0.038-1.167-0.306-1.282-0.549 1.103-1.984 1.327-2.449 1.282zM28.677 8.33c1.237 0 2.366-0.989 2.366-1.856 0-0.402-0.191-0.74-0.676-0.797 0.083 0.108 0.121 0.185 0.121 0.383 0 0.657-0.995 1.378-2.079 1.378-0.395 0-0.51 0.274-0.51 0.415-0.006 0.344 0.313 0.478 0.778 0.478zM28.415 6.991c-0.166 0-0.402 0-0.536-0.262-0.045-0.083-0.064-0.185-0.083-0.293-0.032-0.166-0.064-0.332-0.191-0.421 0.204 0.064 0.408 0.064 0.58 0.064 0.536 0 1.046-0.37 1.441-0.37 0.262 0 0.338 0.166 0.338 0.332 0.013 0.523-1.052 0.95-1.537 0.95h-0.013zM1.831 16.309c0.402 0 0.319-2.475 0.976-2.475 0.153 0 0.198 0.153 0.198 0.351 0 0.561-0.274 1.378-0.274 1.831 0 0.23 0.064 0.306 0.166 0.3 0.287 0 0.785-2.724 1.269-2.724 0.153 0 0.23 0.153 0.23 0.313 0 0.568-0.727 2.213-0.727 2.673 0 0.077 0.032 0.134 0.077 0.134 0.3 0 0.893-1.282 1.084-1.926 0.108-0.332 0.249-0.51 0.383-0.51 0.121 0 0.23 0.134 0.23 0.408 0 0.644-0.593 2.149-1.116 3.164-0.402 0.785-1.033 1.913-1.033 2.545 0 0.319 0.064 0.657 0.517 1.052-0.759-0.045-1.072-0.121-1.352-0.714-1.269 2.526 2.347 2.283 1.11 4.529-0.223-0.402-2.009-0.816-2.009-3.17 0-2.035 1.78-3.221 1.78-4.063 0-0.166-0.057-0.306-0.211-0.44-0.395-0.332-0.402-0.606-0.714-0.606-0.223 0-0.497 0.523-0.217 0.989 0.096 0.153 0.185 0.242 0.185 0.395 0 0.332-0.523 1.225-0.893 1.218-0.37 0-0.651-0.912-0.651-2.385 0-1.308 0.3-2.628 0.663-2.628 0.108 0 0.134 0.077 0.134 0.166 0 0.153-0.045 0.466-0.045 0.989 0.006 0.555 0.128 0.6 0.242 0.587zM4.86 19.792c0.497 0 0.912-0.37 0.912-1.186v-1.212c0-0.466 0.038-0.989 0.345-1.352-0.038 0.153-0.038 0.319-0.038 0.472 0 1.021 0.561 1.722 0.561 2.711 0 0.37-0.109 0.568-0.389 0.561-0.274 0-0.249-0.249-0.313-0.249-0.045 0-0.121 0.153-0.121 0.319 0 0.242 0.185 0.638 0.67 0.644 0.427 0 0.772-0.389 0.772-0.829 0-1.071-0.829-2.258-0.829-3.4 0-0.497 0.134-0.829 0.236-1.091 0 2.36 2.009 4.082 2.009 5.071 0 0.223-0.166 0.402-0.415 0.402-0.274 0-0.402-0.217-0.402-0.383 0-0.083-0.013-0.108-0.045-0.108-0.070 0-0.287 0.236-0.287 0.549 0 0.395 0.319 0.867 0.912 0.867 0.676 0 1.046-0.574 1.046-1.084 0-1.25-2.437-3.138-2.437-5.16 0-0.344 0.057-0.906 0.306-1.333-1.569 1.008-2.054 2.354-2.054 3.534 0 1.021-0.038 1.531-0.561 1.531-0.274 0-0.344-0.249-0.44-0.249-0.070 0-0.109 0.217-0.109 0.274 0.013 0.447 0.325 0.689 0.651 0.689h0.019v0.013zM26.445 6.187c-0.23 0-0.606 0.249-0.906 0.249-0.376-0.006-0.268-0.478-0.683-0.478-0.089 0-0.198 0.025-0.306 0.083-0.861 0.434-1.531 0.268-1.684 0.37-0.038 0.019-0.070 0.051-0.083 0.121 0 0.893 0.95 2.271 2.532 2.271 1.084 0 1.997-0.37 1.997-0.976 0-0.529-0.51-1.639-0.867-1.639zM25.456 7.922c-0.874 0-1.448-0.472-1.441-0.785 0-0.038 0.025-0.064 0.070-0.064 0.14 0 0.523 0.191 1.021 0.274 0.58 0.096 0.893 0.108 1.046 0.108s0.223 0.038 0.223 0.083c0 0.147-0.395 0.383-0.918 0.383zM5.109 24.276c-0.389 0.096-1.021 0.714-1.021 1.69 0 1.161 1.25 2.953 3.304 2.953 1.735 0 2.162-1.199 2.162-2.009 0-1.792-1.103-3.055-2.545-3.055-0.785 0-1.486 0.574-1.486 1.416 0 0.791 0.593 1.964 2.009 1.964 0.663 0 1.059-0.478 1.059-1.020 0-0.536-0.485-1.269-1.199-1.269-0.217 0-0.37 0.14-0.37 0.37 0 0.287 0.395 0.561 0.887 0.568 0.121 0 0.217-0.025 0.261-0.045 0.026 0.032 0.032 0.089 0.032 0.14 0 0.274-0.262 0.44-0.663 0.44-0.606 0-1.186-0.453-1.186-1.167 0-0.427 0.37-0.733 0.906-0.733 1.059 0 1.69 0.944 1.69 1.875 0 0.842-0.466 1.333-1.416 1.327-1.913 0.006-2.832-1.716-2.424-3.444zM19.849 28.058c-0.121-0.23-0.026-0.625-0.383-0.625-0.242 0-0.262 0.191-0.287 0.345-0.517-0.147-0.944-0.223-1.327-0.223-0.274 0-0.51 0.038-0.714 0.109-0.134-0.242-0.721-0.702-1.231-0.867-0.198 1.071-1.161 1.913-2.59 2.035-0.083 0.702-0.631 0.88-1.059 0.88-0.306 0.006-0.797-0.102-0.823-0.223-0.166-1.008-0.931-1.575-1.263-1.709 0.013 0.108 0.025 0.223 0.025 0.332 0 0.855-0.587 1.391-1.677 1.391-0.166 0-0.395-0.013-0.561-0.045 1.25 1.39 2.143 0.88 2.724 1.142 0.759 0.344 1.378 1.403 3.814 1.403 0.887 0 1.792-0.344 2.385-0.727 0.109 0.357 0.478 0.676 1.084 0.676 1.033 0 1.614-0.319 1.614-0.58 0-0.070-0.006-0.179-0.185-0.179s-0.153 0.045-0.721 0.045c-0.657-0.006-1.729-0.262-2.232-1.41-0.089-0.191-0.23-0.191-0.274-0.191-0.332 0-0.842 1.18-2.934 1.18-0.874 0.006-1.282-0.325-1.282-0.402 0-0.013 0-0.026 0.045-0.026 0.083 0 0.408 0.038 0.81 0.038 1.32 0 2.386-0.606 3.030-1.307 0.223-0.249 0.332-0.287 0.523-0.287 0.166 0 0.344 0.147 0.427 0.37 0.293 0.759 0.969 1.365 1.709 1.365 1.001 0 1.014-1.709 1.25-1.792 0.042 0.015 0.090 0.024 0.14 0.026h0.001c0.121 0 0.313-0.089 0.313-0.313 0-0.242-0.293-0.306-0.351-0.427zM18.229 29.34c-0.262-0.006-0.472-0.217-0.472-0.478 0-0.268 0.21-0.478 0.472-0.478s0.478 0.217 0.478 0.478c0 0 0 0 0 0.001 0 0.264-0.214 0.478-0.478 0.478-0 0-0 0-0.001 0h0zM26.795 22.433c-1.748 0-1.295 1.531-3.336 1.996-0.376 0.083-0.485 0.204-0.485 0.37 0 0.313 0.172 0.714 0.389 0.714 0.887 0 2.271-1.843 2.519-1.843v-0.012c0.105 0.006 0.21 0.016 0.204 0.261 0 0.67-1.926 1.544-1.926 2.022 0 0.287 0.682 0.893 1.346 0.893 0.963 0.006 1.824-1.965 2.028-1.965 0.159 0 0.217 0.115 0.217 0.236 0 0.536-0.651 1.582-1.792 2.035-0.236 0.096-0.274 0.204-0.274 0.287 0 0.261 0.3 0.651 0.574 0.651 0.332 0 2.564-1.945 2.564-3.514 0-1.473-1.065-2.13-2.028-2.13zM27.599 24.123c-0.129-0.001-0.249-0.034-0.355-0.091l0.004 0.002c-0.153-0.070-0.427-0.3-0.427-0.651 0-0.319 0.179-0.453 0.344-0.453 0.51 0 1.046 0.453 1.052 0.81 0 0.287-0.274 0.383-0.619 0.383zM4.969 9.166c0 0.262 0.211 0.472 0.472 0.478 0.262 0 0.472-0.217 0.472-0.478s-0.217-0.472-0.472-0.472c-0.255 0.006-0.478 0.217-0.478 0.472h0.006zM4.35 8.1c0 0.262 0.211 0.472 0.472 0.472s0.478-0.217 0.478-0.478c0-0.262-0.217-0.478-0.478-0.478s-0.472 0.23-0.472 0.485zM3.923 11.347c-0.274 0.070-0.842 0.402-0.842 0.995 0 0.427 0.338 0.702 0.746 0.702 0.217 0 0.37-0.045 0.466-0.121-0.332-0.319-0.453-0.676-0.453-1.033 0-0.236 0.038-0.389 0.083-0.542zM1.008 11.519c-0.013 0.057-0.013 0.121-0.013 0.179 0 0.561 0.287 0.867 0.682 0.867 0.293 0 0.644-0.179 0.95-0.568-0.128 0.025-0.287 0.038-0.427 0.038-0.427 0-0.912-0.121-1.193-0.517zM0.593 12.585c0 0.899 0.274 1.327 0.759 1.333 0.383 0 0.893-0.274 1.499-0.797-0.466 0.109-0.823 0.179-1.142 0.185-0.427-0.007-0.753-0.172-1.116-0.721zM3.674 7.826c0.057-0.191 0.109-0.427 0.109-0.689 0-0.568-0.262-1.435-1.072-1.435-0.466 0-0.797 0.37-0.797 0.81 0 0.944 0.944 1.32 1.76 1.314zM4.273 9.025c-0.153-0.204-0.096-0.389-0.191-0.485-0.057-0.057-0.223-0.057-0.44-0.083-0.078-0.008-0.169-0.012-0.261-0.013h-0.001c-0.389 0-0.855 0.051-1.378 0.383-1.027 0.651-0.88 1.748-1.040 2.016-0.019 0.038-0.038 0.083-0.038 0.134 0 0.108 0.121 0.23 0.23 0.223 0.096 0 0.153-0.025 0.204-0.025 0.287 0 0.612 0.198 1.065 0.204 0.274 0 0.593-0.083 0.995-0.287 0.855-0.427 1.186-1.486 1.186-1.665 0-0.223-0.179-0.198-0.332-0.402zM2.66 10.824c-0.389 0-0.816-0.485-0.816-0.925 0-0.236 0.179-0.536 0.306-0.536 0.045 0 0.077 0.032 0.077 0.121 0.070 0.58 0.459 0.912 0.81 1.084 0.038 0.032 0.064 0.032 0.064 0.057 0 0.070-0.223 0.191-0.44 0.198zM3.776 10.091c-0.415 0-0.746-0.631-0.746-0.989 0-0.223 0.134-0.249 0.306-0.249 0.083 0 0.121 0.013 0.185 0.045 0.102 0.057 0.102 0.287 0.236 0.472 0.083 0.108 0.306 0.242 0.306 0.338 0 0.166-0.096 0.383-0.287 0.383zM4.911 10.371c-0.262 0.306-0.536 0.829-0.536 1.371 0 0.638 0.395 1.174 1.008 1.174 0.58 0 0.855-0.498 0.855-1.008-0.006-0.804-0.727-1.365-1.327-1.537zM2.366 8.088s-0.345 0.261-0.772 0.261c-0.51 0-0.912-0.383-0.912-0.912 0-0.37 0.191-0.746 0.631-0.938-0.013 0.070-0.013 0.128-0.013 0.204-0.006 0.67 0.37 1.186 1.065 1.384zM23.319 12.029c0 0.274 0.23 0.504 0.504 0.498 0.274 0 0.497-0.223 0.497-0.498s-0.223-0.497-0.497-0.497c-0.281 0-0.504 0.23-0.504 0.497zM23.351 13.528c0 0.306 0.242 0.561 0.561 0.561 0.31-0.001 0.561-0.252 0.561-0.561v-0c-0-0.31-0.252-0.561-0.561-0.561h-0c-0.306 0.013-0.561 0.255-0.561 0.561zM21.642 14.542c0 0.459 0.363 0.823 0.823 0.823 0.453 0 0.823-0.37 0.823-0.823s-0.37-0.823-0.823-0.823c-0.453 0.006-0.823 0.37-0.823 0.823zM22.082 12.859c0 0.261 0.211 0.472 0.472 0.478 0.261 0 0.478-0.217 0.478-0.478s-0.217-0.478-0.478-0.478c-0.255 0-0.466 0.217-0.466 0.485l-0.006-0.006zM20.525 13.815c0 0.261 0.21 0.472 0.472 0.472s0.478-0.211 0.478-0.472-0.217-0.472-0.478-0.472c-0.255 0-0.466 0.217-0.472 0.472zM21.75 11.028c0 0.408 0.351 0.759 0.759 0.759s0.759-0.344 0.759-0.759-0.345-0.759-0.759-0.759c-0.415 0-0.759 0.351-0.759 0.759zM22.637 9.574c0 0.242 0.198 0.459 0.459 0.453 0.25-0.001 0.452-0.203 0.453-0.453v-0c-0.001-0.25-0.203-0.452-0.453-0.453h-0c-0.255 0.006-0.466 0.204-0.459 0.453zM20.487 10.715c0 0.242 0.198 0.459 0.44 0.453 0.25-0.001 0.452-0.203 0.453-0.453v-0c-0.001-0.25-0.203-0.452-0.453-0.453h-0c-0.236 0.006-0.44 0.204-0.44 0.453zM20.43 12.265c0 0.408 0.319 0.734 0.714 0.727 0.001 0 0.003 0 0.004 0 0.399 0 0.723-0.324 0.723-0.723 0-0.002 0-0.003 0-0.005v0c0-0.001 0-0.003 0-0.004 0-0.399-0.324-0.723-0.723-0.723-0.002 0-0.003 0-0.005 0h0c-0.395-0.006-0.721 0.313-0.714 0.727zM18.931 13.018c0 0.364 0.306 0.67 0.67 0.676 0.37 0 0.676-0.306 0.676-0.676s-0.312-0.676-0.676-0.676c-0.357 0-0.67 0.3-0.67 0.676zM19.333 11.341c0 0.261 0.211 0.472 0.472 0.472s0.478-0.217 0.478-0.478-0.217-0.478-0.478-0.478c-0.255-0.006-0.466 0.211-0.466 0.478h-0.006v0.006zM23.51 15.008c0-0.236 0.217-0.44 0.447-0.44 0.261 0 0.459 0.198 0.459 0.44 0 0.274-0.204 0.466-0.466 0.459-0.243-0.001-0.44-0.198-0.44-0.442 0-0.006 0-0.012 0-0.019l-0 0.001zM23.912 27.497c0.096-0.083 0.121-0.217 0.121-0.344v-0.274c0-0.345-0.523-0.549-1.237-0.549-0.867 0-1.333 0.389-1.333 0.555v0.549c0 0.23 0.517 0.459 1.174 0.459 0.504 0 0.969-0.134 1.276-0.395zM24.531 27.625c-0.306 0.236-1.033 0.772-2.232 0.778-0.644 0-0.925-0.204-1.021-0.204-0.121 0-0.249 0.121-0.383 0.274-0.281 0.332-0.651 0.95-0.651 1.633 0 0.472 0.364 0.944 1.053 0.95 2.226 0 3.884-1.39 3.884-2.519 0.006-0.639-0.377-0.914-0.651-0.912zM23.408 29.806c-0.3 0.204-0.702 0.37-1.295 0.376 0.096-0.287 0.166-0.58 0.166-0.867 0-0.096-0.013-0.166-0.025-0.274h0.153c0.931-0.006 1.339-0.376 1.41-0.37 0.057 0 0.134 0.032 0.134 0.249 0 0.261-0.121 0.606-0.542 0.887zM24.946 17.629c0 0.287 0.089 0.638 0.395 0.644 0.249 0 0.466-0.383 0.466-0.797 0-0.478-0.083-0.842-0.083-1.033 0-0.083 0.038-0.121 0.083-0.121 0.179 0.013 0.351 0.504 0.536 0.504 0.217 0 0.536-0.395 0.663-0.395 0.038 0 0.045 0.045 0.045 0.057 0 0.179-0.274 0.574-0.274 0.734 0 0.134 0.683 0.153 0.683 0.274 0 0.179-0.721 0.179-1.065 0.332-0.332 0.14-0.536 0.319-0.536 0.561s0.242 0.287 0.58 0.287c0.797 0 1.352-0.427 1.531-0.427 0.038 0 0.064 0.032 0.064 0.057 0 0.121-0.402 0.51-0.402 0.683 0 0.198 0.734 0.44 0.734 0.561-0.013 0.038-0.057 0.045-0.14 0.045-0.134 0-0.332-0.038-0.491-0.038-0.096 0-0.179 0.013-0.217 0.057-0.083 0.089 0.032 0.727-0.14 0.727-0.153 0-0.561-1.403-1.473-1.403-0.134 0-0.223 0.108-0.223 0.287 0 0.472 0.459 1.021 0.899 1.282 0.198 0.134 0.536 0.261 0.536 0.338 0 0.14-0.759 0.013-0.759 0.249 0 0.211 0.089 0.536 0.089 0.727 0 0.057-0.013 0.127-0.083 0.134-0.14 0-0.491-0.651-0.657-0.651-0.14 0-0.453 0.389-0.581 0.389-0.032 0-0.057-0.038-0.057-0.070 0-0.274 0.44-0.893 0.44-1.499 0-0.287-0.038-0.906-0.383-0.906-0.287 0-0.606 0.453-0.746 0.899-0.083 0.261-0.025 1.269-0.217 1.269-0.179 0-0.134-0.676-0.37-0.676-0.179 0-0.555 0.319-0.689 0.319-0.025 0-0.045-0.013-0.045-0.038 0-0.14 0.344-0.606 0.344-0.702 0-0.179-0.785-0.204-0.785-0.345 0-0.083 0.306-0.14 0.593-0.191 0.606-0.108 1.499-0.549 1.499-1.167 0-0.689-0.663-0.989-1.103-1.269-0.223-0.14-0.478-0.261-0.478-0.357s0.287-0.096 0.402-0.096c0.179 0 0.357-0.013 0.357-0.153 0-0.108-0.025-0.319-0.025-0.485 0-0.121 0.013-0.217 0.057-0.217 0.179 0 0.427 0.58 0.549 0.58 0.191 0 0.453-0.478 0.631-0.478 0.057 0 0.077 0.032 0.077 0.14-0.006 0.446-0.23 0.95-0.23 1.378zM19.275 14.153c0.134 1.008 1.493 0.504 1.493 1.722 0 0.179-0.045 0.44-0.045 0.663 0 0.262 0.032 0.485 0.23 0.485 0.204 0 0.249-0.14 0.249-0.332s-0.045-0.427-0.045-0.561c0-0.415 0.3-0.51 0.478-0.51 0.453 0 0.791 0.459 1.48 0.466-0.153 0.759-1.722 0.561-1.722 1.39 0 0.408 0.408 0.517 0.683 0.517 0.249 0 0.332-0.038 0.332-0.249 0-0.121-0.026-0.249-0.026-0.332 0-0.045 0.038-0.096 0.096-0.096 0.261 0 1.537 0.976 1.537 1.269 0 0.274-1.352 0.549-1.748 0.549-0.121 0-0.14-0.083-0.14-0.128 0-0.083 0.204-0.332 0.204-0.478 0-0.109-0.179-0.179-0.657-0.179-0.223 0-0.395 0.025-0.395 0.204 0 0.319 0.517 0.715 0.517 1.008 0 0.236-0.14 0.383-0.523 0.383-0.319 0-0.804-0.249-0.804-0.663 0-0.332 0.344-0.663 0.344-0.867 0-0.057-0.045-0.153-0.185-0.153-0.44 0-0.561 1.167-2.118 1.295 0.249-0.223 0.466-0.478 0.466-0.989 0-0.249-0.057-0.453-0.057-0.727 0-0.357 0.166-0.536 0.402-0.536 0.44 0 0.657 0.625 0.944 0.625 0.153 0 0.319-0.14 0.319-0.357 0-0.906-1.735-0.772-1.735-2.041-0.013-0.357 0.115-0.785 0.427-1.378zM23.268 21.559c0.083 0.134 0.121 0.262 0.121 0.383 0 0.332-0.223 0.644-0.223 0.989 0 0.395 0.306 0.714 0.746 0.714 0.485 0 0.823-0.389 0.823-0.855-0.006-0.638-0.58-1.174-1.467-1.231zM19.333 22.318c0.121 0.121 0.153 0.242 0.153 0.357 0 0.179-0.083 0.37-0.083 0.568 0 0.287 0.211 0.536 0.517 0.536 0.332 0 0.561-0.262 0.561-0.568 0.006-0.446-0.453-0.893-1.142-0.893h-0.006zM19.62 20.914c0.549 0.077 0.682 0.261 0.682 0.415 0 0.261-0.236 0.344-0.466 0.344-0.166 0-0.357-0.038-0.561-0.038-0.261 0-0.523 0.057-0.74 0.306 0.153 0.032 0.383 0.134 0.383 0.37 0 0.689-1.913 0.121-1.913 1.888 0 0.944 0.976 1.965 2.456 1.958 0.759 0 1.25-0.249 1.25-0.536 0-0.223-0.402-0.070-0.402-0.262 0-0.083 0.14-0.236 0.14-0.37 0-0.057-0.045-0.166-0.14-0.166-0.217 0-0.619 0.344-1.441 0.351-0.644 0-1.269-0.37-1.269-0.867 0-0.108 0.045-0.166 0.121-0.166 0.070 0 0.166 0.045 0.242 0.045 0.070 0 0.083-0.045 0.083-0.179s0-0.497 0.223-0.497 0.657 0.835 2.303 0.835c0.542 0 1.601-0.108 1.996-0.466-0.013 1.308-1.033 3.030-3.176 3.030-2.22 0-3.412-1.786-3.412-3.425 0-1.818 1.486-3.47 3.521-3.47 0.523 0 0.957 0.185 0.957 0.402 0 0.332-0.778 0.134-0.835 0.498zM20.914 20.289c0.166 0.198 0.223 0.415 0.217 0.606 0 0.51-0.389 1.033-0.389 1.531 0 0.67 0.44 1.084 1.046 1.084 0.663 0 1.046-0.561 1.046-1.167 0-0.88-0.67-1.811-1.92-2.054zM21.82 22.171c-0.166-0.013-0.287-0.134-0.287-0.3 0-0.089 0.057-0.236 0.077-0.351 0.025-0.16-0.013-0.3 0.083-0.3 0.217 0 0.44 0.345 0.44 0.593 0 0.191-0.121 0.357-0.312 0.357zM11.934 7.348c-0.606 0.013-1.167 0.51-1.55 1.186 0.024-0.123 0.038-0.264 0.038-0.408v-0c0-0.925-0.497-1.76-1.435-1.76-0.759 0-1.448 0.44-1.735 1.295 0.083-0.089 0.332-0.242 0.536-0.242 0.236 0 0.306 0.204 0.306 0.523 0 0.217-0.051 0.466-0.134 0.702-0.147 0.389-0.408 0.51-0.549 0.51-0.593 0-0.325-0.976-0.625-0.976-0.249 0-0.319 0.523-0.319 0.727 0 0.676 0.44 1.39 1.416 1.39 1.033 0 1.62-0.491 2.252-1.154 0.121 0.714 0.51 1.939 1.556 1.939 0.568 0 0.976-0.472 1.021-1.020-0.077 0.070-0.179 0.127-0.3 0.127-0.217 0-0.261-0.306-0.261-0.58 0-0.44 0.127-0.912 0.332-0.912 0.108 0 0.166 0.070 0.191 0.389 0.019 0.249 0 0.523 0.153 0.523s0.249-0.491 0.249-0.823c0-0.765-0.357-1.435-1.142-1.435zM8.413 9.644c-0.102 0-0.127-0.096-0.134-0.179 0-0.465 0.51-2.545 0.88-2.545 0.089 0 0.121 0.070 0.121 0.166 0 0.37-0.466 2.558-0.868 2.558zM9.995 8.757c-0.306 0.345-0.472 0.485-0.606 0.485-0.070 0.006-0.14-0.115-0.14-0.255 0-0.255 0.179-1.205 0.536-1.205 0.14 0 0.236 0.261 0.236 0.497 0 0.179 0 0.325-0.025 0.479zM10.69 9.58c-0.121 0.006-0.185-0.191-0.21-0.619 0.191-0.319 0.319-0.459 0.44-0.459 0.051 0 0.096 0.045 0.096 0.249v0.006h0.006c0 0.415-0.198 0.829-0.332 0.823zM11.328 10.301c-0.077 0-0.134-0.108-0.128-0.357 0-0.644 0.415-1.818 0.663-1.818 0.070 0 0.096 0.166 0.096 0.319 0 0.714-0.332 1.856-0.631 1.856zM9.708 10.55c-0.51 0-0.536 0.619-0.536 1.869-0.383-0.823-1.008-1.697-1.748-1.697-0.498 0-0.689 0.332-0.689 0.912 0 0.121 0.013 0.306 0.032 0.402 0.057-0.204 0.249-0.287 0.485-0.287 0.51 0 1.129 0.395 1.537 0.925-0.466-0.083-0.919-0.166-1.295-0.166-0.236 0-0.453 0.025-0.631 0.108-0.344 0.153-0.81 0.663-0.81 1.435 0 0.121 0.013 0.242 0.032 0.389 0.415-0.925 1.518-1.346 2.232-1.346 0.14 0 0.242 0.013 0.338 0.025-0.37 0.332-0.453 0.912-0.478 1.308-0.013 0.191-0.083 0.204-0.217 0.198 0 0.395 0.306 0.976 0.306 1.269 0 0.108-0.057 0.204-0.121 0.223 0 0.517 0.517 0.899 0.517 1.231 0 0.083-0.025 0.153-0.057 0.191 0.038 0.21 0.612 0.58 0.682 0.753 0.089 0.21 0.198 0.261 0.262 0.261 0.204 0 0.523-0.236 0.523-0.453 0-0.070-0.057-0.153-0.108-0.191-0.223-0.166-0.344-0.523-0.44-0.759-0.083 0-0.191-0.032-0.23-0.172-0.064-0.249-0.070-0.702-0.166-0.976-0.153-0.038-0.223-0.096-0.223-0.415 0-0.153 0.096-0.759 0.096-0.976-0.070 0-0.166-0.045-0.166-0.191 0-0.383 0.383-0.676 0.485-1.167 0.676 0.504 0.836 1.008 0.836 1.461 0 0.236-0.038 0.466-0.083 0.676 0.498-0.249 1.25-0.619 1.25-1.365 0-0.44-0.204-0.925-1.543-1.116 0.415-0.153 0.938-0.236 1.378-0.236 0.759 0 1.205 0.242 1.295 0.778 0.153-0.236 0.274-0.51 0.274-0.759 0-0.58-0.485-0.963-1.103-0.963-0.727 0-1.365 0.383-2.054 0.836 0.313-0.644 0.523-1.021 0.906-1.021 0.057 0 0.121 0.013 0.185 0.025-0.128-0.51-0.67-1.027-0.95-1.021zM29.736 19.116c0.593 0 1.065 0.778 1.065 1.677 0 0.963-0.453 2.009-1.257 2.73-0.013-1.601-1.977-1.091-1.977-2.258 0-0.498 0.357-0.829 0.785-0.829 0.383 0 0.67 0.109 0.899 0.319-0.217-0.204-0.319-0.485-0.319-0.759-0.006-0.466 0.281-0.88 0.804-0.88zM20.914 6.959c-0.096-0.153-0.453-0.236-0.619-0.236-0.523 0-0.88 0.37-0.95 0.702-0.045-0.121-0.083-0.262-0.083-0.402 0-0.523 0.357-1.167 1.225-1.167 0.759 0 1.052 0.395 1.161 0.395 0.121 0 0.236-0.121 0.332-0.121 0.127 0 0.134 0.198 0.134 0.345 0 0.472-0.217 1.295-0.753 1.601-0.096-0.204-0.287-0.427-0.593-0.568-0.083-0.038-0.121-0.109-0.121-0.179 0.006-0.14 0.127-0.306 0.268-0.37zM19.122 7.826c0.306 0.306 0.581 0.427 0.912 0.427 0.134 0 0.287-0.038 0.37-0.038 0.108 0 0.185 0.045 0.185 0.134 0 0.134-0.121 0.344-0.261 0.466 0.14 0.064 0.306 0.077 0.459 0.083 0.676 0 1.448-0.427 1.448-1.499 0.14 0.185 0.23 0.581 0.23 0.759 0 1.295-0.95 1.792-1.831 1.792-0.574 0-0.855-0.191-0.931-0.191-0.223 0-0.211 0.453-0.37 0.44-0.274-0.045-0.523-0.65-0.523-1.295 0-0.383 0.102-0.797 0.319-1.091h-0.006v0.013zM8.949 0.268c0-0.070-0.357-0.14-0.842-0.14-0.772 0-0.663 0.644-1.257 0.638-0.619 0-0.466-0.663-1.25-0.663-0.478 0-0.912 0.083-0.912 0.191 0 0.134 0.561 0.077 0.561 0.472 0 0.415-1.199 0.536-1.199 0.784 0 0.077 0.089 0.121 0.21 0.121 0.262 0 0.676-0.121 0.976-0.121 0.166 0 0.319 0.032 0.319 0.191 0 0.3-0.644 0.829-0.644 1.071 0 0.077 0.064 0.089 0.121 0.096 0.236 0 0.644-0.606 1.021-0.606 0.631 0 0.21 1.339 0.561 1.346 0.357 0 0.204-1.32 0.714-1.32 0.415 0 0.733 0.912 1.008 0.912 0.070 0 0.128-0.057 0.128-0.14 0-0.249-0.357-0.759-0.357-1.091 0-0.204 0.14-0.3 0.332-0.3 0.274 0 0.638 0.166 0.836 0.166 0.070 0 0.14-0.025 0.14-0.108 0-0.287-1.059-0.593-1.059-0.963 0.013-0.364 0.6-0.364 0.593-0.536zM11.743 1.48c0 0.21 0.746 0.67 1.097 0.676 0.204 0 0.261-0.274 0.261-0.561 0-0.357-0.153-0.37-0.465-0.37-0.395 0.006-0.893 0.115-0.893 0.255zM12.98 3.833c0-0.714-1.926-2.009-1.952-2.564 0-0.051 0.025-0.102 0.070-0.147 0.332-0.351 1.703-0.6 1.703-0.9 0-0.153-0.287-0.153-0.427-0.153-1.103 0-2.723 0.402-2.723 0.797 0 0.408 1.448 1.384 1.448 1.875 0 0.134-0.083 0.179-0.217 0.185-0.402 0-1.282-0.485-1.697-0.485-0.191 0-0.262 0.127-0.262 0.319 0 0.561 0.67 1.646 0.67 1.964 0 0.038-0.013 0.083-0.057 0.083-0.217 0-1.225-1.186-1.582-1.186-0.128 0-0.14 0.179-0.14 0.44v0.402c0 0.274-0.013 0.44-0.14 0.44-0.306 0-0.453-0.867-0.746-0.867-0.306 0-0.37 1.544-0.663 1.537-0.344 0-0.045-1.697-0.383-1.697-0.37 0-0.785 1.129-1.046 1.129-0.096 0-0.121-0.096-0.121-0.179 0-0.344 0.204-0.906 0.204-1.237 0-0.166-0.045-0.261-0.191-0.261-0.37 0-1.18 0.593-1.486 0.593-0.045 0-0.108-0.025-0.108-0.070 0-0.287 1.295-1.186 1.295-1.595 0-0.395-1.786-0.134-1.786-0.58 0-0.383 1.269-0.772 1.269-1.167 0-0.344-1.512-0.497-2.092-0.497-0.702 0-1.085 0.083-1.085 0.287 0 0.306 1.601 0.408 1.601 0.67s-1.652 0.963-1.652 1.365c0 0.351 2.328 0.032 2.328 0.395 0 0.402-2.035 2.15-2.035 2.73 0 0.134 0.089 0.185 0.23 0.191 0.619 0 2.22-1.174 2.66-1.174 0.153 0 0.166 0.185 0.166 0.351 0 0.313-0.108 0.785-0.108 1.129 0 0.274 0.077 0.459 0.306 0.466 0.44 0 0.842-0.746 1.142-0.746 0.383 0 0.153 2.194 0.733 2.201 0.485 0 0.689-2.379 0.995-2.379s0.561 0.682 0.836 0.682c0.357 0 0.191-1.199 0.574-1.199 0.415 0 1.601 1.435 2.13 1.429 0.166 0 0.223-0.134 0.223-0.3 0-0.631-0.88-2.054-0.88-2.507 0-0.121 0.032-0.153 0.166-0.153 0.466 0 1.811 0.638 2.456 0.638 0.242 0.025 0.37-0.096 0.376-0.255zM2.124 3.145c0 0.236-0.906 1.033-1.225 1.033-0.121 0-0.153-0.14-0.153-0.274 0-0.236 0.108-0.568 0.236-0.676 0.153-0.14 0.51-0.211 0.785-0.211 0.172 0 0.357 0.032 0.357 0.128zM10.862 4.369c0 0.408 1.493 2.456 1.767 2.449 0.236 0 0.415-0.415 0.415-0.772 0-0.096-0.025-0.191-0.070-0.261-0.217-0.3-1.722-1.486-2.054-1.486-0.032-0.006-0.064 0.026-0.057 0.070zM31.343 0.23c-0.593 0-0.695-0.185-1.097-0.185-0.485 0-0.829 0.332-0.829 0.829 0 0.166 0.057 0.427 0.057 0.772 0 0.421-0.083 0.81-0.453 0.81-0.338 0-0.472-0.223-0.472-0.485 0-0.472 0.249-0.791 0.249-1.103 0-0.568-0.702-0.733-1.435-0.733-0.88 0-1.831 0.236-1.831 0.357 0 0.204 1.269 0.083 2.162 1.225-0.58 0.013-1.709 0.274-1.709 0.427 0 0.191 2.022 0.408 2.022 1.25 0.006 0.555-0.44 0.612-0.612 0.619-0.67 0-1.027-0.682-1.205-0.682-0.001 0-0.001-0-0.002-0-0.052 0-0.094 0.042-0.094 0.094 0 0.001 0 0.001 0 0.002v-0c0 0.108 0.096 0.389 0.096 0.689 0 0.759-0.842 0.842-0.842 0.995 0 0.057 0.025 0.083 0.121 0.096 0.554 0.089 1.193 0.14 1.843 0.14h0c2.149 0 3.91-0.67 3.91-2.545 0-1.033-0.319-1.365-0.319-1.869 0-0.166 0.121-0.51 0.44-0.702zM28.294 4.293c-0.134 0-0.287 0-0.44-0.013 1.39-0.223 2.162-1.027 2.162-2.086 0.313 0.089 0.504 0.408 0.497 0.746 0 0.619-0.593 1.352-2.22 1.352zM30.252 1.059c-0.172-0.006-0.306-0.128-0.306-0.293 0-0.172 0.14-0.293 0.306-0.3 0 0 0 0 0 0 0.165 0 0.299 0.134 0.299 0.299 0 0 0 0 0 0v0c0 0.166-0.134 0.3-0.3 0.293zM30.999 16.501c-0.555 0-0.88 0.976-1.422 1.033 0.344-1.429 1.76-2.162 1.76-3.495 0-1.512-1.269-2.041-1.799-2.379-0.887-1.25-1.518-2.239-2.94-2.239-0.606 0-0.989 0.108-1.403 0.108-0.804-0.006-1.053-0.313-1.11-0.313-0.013 0-0.025 0.013-0.025 0.057 0 1.103 0.58 3.636 3.138 3.636 1.365 0 1.952-0.523 2.271-0.523 0.345 0 1.448 0.376 1.448 1.639 0 0.702-0.555 1.416-0.759 1.416-0.198 0.006-0.408-0.313-0.408-0.651 0-0.376 0.204-1.065 0.204-1.492 0-0.159-0.025-0.236-0.121-0.236-0.217 0-1.237 0.638-1.237 1.461 0 0.702 1.033 1.129 1.422 1.333-0.389 0.644-0.625 1.059-0.817 1.652 0-0.447-0.427-1.359-0.561-1.741-0.657-1.786-0.887-2.118-2.239-2.271 0.204 0.714 2.532 2.437 2.532 4.197 0 0.108-0.013 0.261-0.025 0.319-0.702-2.054-1.907-2.526-2.347-3.030-0.714-0.785-0.306-1.544-1.448-1.971 0.070 0.096 0.096 0.217 0.096 0.344 0 0.376-0.217 0.855-0.217 1.186 0 1.237 1.454 0.867 2.296 1.544 0.829 0.67 1.295 1.76 1.639 2.972 0.332-0.529 0.523-1.174 1.116-1.174 0.383 0 0.51 0.478 0.51 0.81 0 0.070 0 0.134-0.013 0.179 0.568-0.485 0.867-1.269 0.867-1.792 0-0.351-0.121-0.58-0.408-0.58zM28.785 11.838c-0.121 0-0.351-0.064-0.504-0.064-0.408 0-0.695 0.561-0.906 0.561-0.077 0-0.108-0.070-0.108-0.134 0-0.23 0.402-0.504 0.402-0.657 0-0.109-0.172-0.14-0.242-0.14-0.408 0-0.976 0.555-1.295 0.555-0.057 0-0.134-0.032-0.134-0.108 0-0.153 0.427-0.37 0.427-0.536 0-0.147-0.185-0.179-0.306-0.179-0.198 0-0.593 0.108-0.842 0.108-0.134 0-0.242-0.025-0.242-0.134 0-0.242 0.772-0.083 0.772-0.37 0-0.14-0.242-0.402-0.242-0.536 0-0.051 0.064-0.089 0.121-0.089 0.274 0 0.561 0.746 0.88 0.746 0.14 0 0.179-0.108 0.179-0.261s-0.032-0.23-0.032-0.364c0-0.14 0.057-0.179 0.102-0.179 0.198 0 0.376 1.072 0.925 1.072 0.242-0.006 0.070-0.657 0.287-0.657 0.134 0 0.166 0.191 0.179 0.3 0.057 0.702 0.689 0.727 0.689 0.976 0 0.025-0.038 0.089-0.108 0.089zM22.675 0.077c-0.797 0-1.378 0.389-1.69 0.389-0.185 0.013-0.472-0.466-0.619-0.466-0.057 0-0.121 0.121-0.121 0.319 0 0.134 0 0.549-0.14 0.549-0.287 0-1.39-0.816-1.39-0.523 0 0.274 0.733 1.11 0.733 1.327s-0.727 0.415-0.727 0.561c0 0.261 0.778 0.306 0.778 0.644 0 0.332-0.81 0.593-0.81 0.835 0 0.198 0.81 0.064 0.81 0.306 0 0.249-0.593 1.084-0.593 1.32 0 0.064 0.013 0.064 0.064 0.064 0.223 0.006 0.906-0.772 1.065-0.772 0.191 0 0.23 0.459 0.261 0.74 0.026 0.134 0.045 0.153 0.109 0.153 0.14 0 0.37-0.549 0.523-0.549 0.223 0 0.836 0.625 1.843 0.631 1.435 0 2.794-1.008 2.794-2.794 0-1.722-1.212-2.736-2.889-2.736zM20.64 3.91c-0.038 0-0.057-0.045-0.057-0.108l-0.026-0.472c0-0.045-0.026-0.096-0.083-0.096-0.14 0-0.415-0.013-0.497-0.013-0.057 0-0.083-0.013-0.083-0.038 0.013-0.089 0.485-0.427 0.491-0.504 0-0.134-0.466-0.383-0.466-0.523 0-0.025 0.025-0.038 0.057-0.038 0.134 0 0.351 0.045 0.536 0.045 0.153 0 0.179-0.663 0.293-0.663 0.083 0 0.23 0.625 0.351 0.625 0.153 0 0.44-0.179 0.561-0.179 0.026 0 0.045 0.013 0.045 0.038 0 0.083-0.3 0.402-0.3 0.504 0 0.108 0.67 0.242 0.67 0.332 0 0.121-0.676 0.108-0.676 0.217 0 0.077 0.242 0.408 0.242 0.517 0 0.026-0.013 0.038-0.038 0.038-0.096 0-0.466-0.166-0.574-0.166-0.134 0-0.344 0.485-0.446 0.485zM22.7 4.937c-0.836 0-1.378-0.415-1.378-0.631 0-0.108 0.070-0.179 0.166-0.179 0.261 0 0.836 0.396 1.021 0.396 0.045 0 0.083-0.026 0.083-0.096 0-0.217-0.204-0.568-0.204-0.746 0-0.045 0.038-0.083 0.108-0.083 0.319 0 0.791 0.134 1.052 0.134 0.083 0 0.109-0.045 0.109-0.096 0-0.261-0.772-0.772-0.772-0.925 0-0.14 0.963-0.357 0.963-0.58 0-0.236-1.308-0.070-1.308-0.3 0-0.166 0.249-0.453 0.249-0.58 0-0.057-0.045-0.083-0.128-0.083-0.108 0-0.676 0.223-0.918 0.223-0.121 0-0.262-0.026-0.262-0.191 0-0.274 0.466-0.568 1.193-0.568 1.174 0 1.875 0.81 1.875 2.162-0.006 1.716-1.199 2.143-1.85 2.143zM14.651 25.501c0 0.108-0.038 0.223-0.134 0.344-0.128-0.236-0.498-0.357-0.663-0.357-1.225 0-0.759 1.773-2.067 1.773-0.549 0-0.593-0.070-0.797-0.070-0.083 0-0.134 0.038-0.134 0.108 0 0.306 0.44 1.065 1.658 1.072 1.225 0 2.398-0.746 2.398-1.678 0-0.153-0.038-0.319-0.109-0.485 0.045-0.070 0.166-0.121 0.274-0.121 0.191 0 0.287 0.211 0.472 0.217 0.191 0 0.332-0.14 0.332-0.332 0-0.153-0.083-0.262-0.223-0.332 0.096-0.070 0.166-0.191 0.166-0.319 0-0.204-0.14-0.389-0.383-0.389-0.108 0-0.179 0.038-0.261 0.115-0.025-0.21-0.14-0.415-0.37-0.415-0.179 0-0.313 0.128-0.313 0.338 0.026 0.166 0.153 0.319 0.153 0.529zM10.824 24.639c-0.083 0-0.191 0.013-0.306 0.013-0.108 0-0.262-0.025-0.357-0.108-0.191-0.166-0.249-1.059-0.606-1.595-0.389-0.593-0.816-0.759-1.403-0.759-0.415 0-0.88 0.223-0.88 0.561 0 0.204 0.115 0.344 0.867 0.542 0.95 0.242 1.435 0.746 1.525 1.352 0.096 0.58 0.21 1.052 0.44 1.295 0.3 0.338 0.887 0.625 1.384 0.625 0.427 0 0.772-0.14 0.772-0.536 0-0.427-0.58-1.39-1.435-1.39zM11.455 25.947c-0.357 0-0.893-0.383-0.893-0.593 0-0.179 0.166-0.274 0.3-0.274 0.3 0 0.836 0.364 0.836 0.676-0.006 0.083-0.064 0.185-0.242 0.191zM14.3 20.717c-0.549-0.198-0.791-0.517-0.899-1.142-0.268 0.364-0.395 0.708-0.395 0.912 0 0.804 1.103 0.817 1.103 1.352-0.006 0.313-0.561 0.631-1.295 0.638-0.855-0.006-1.429-0.14-1.965-0.676-0.14-0.153-0.204-0.287-0.383-0.287-0.204 0-0.287 0.357-0.287 0.676 0 1.167 1.11 2.545 2.653 2.545 1.926-0.006 2.673-1.333 2.673-2.405 0-0.625-0.147-1.218-1.206-1.614zM13.733 23.97c-0.153 0-0.185-0.096-0.185-0.23 0-0.109 0.038-0.313 0.038-0.466 0-0.421 0.159-0.389 0.568-0.574h-0.006c0.287-0.134 0.395-0.313 0.485-0.313 0.108 0 0.204 0.070 0.204 0.236 0 0.619-0.676 1.346-1.103 1.346zM10.365 16.692c0-0.759 1.805-1.167 1.805-2.105 0-0.153-0.057-0.427-0.166-0.631 0.631 0.351 1.097 0.931 1.097 1.403 0 0.823-0.855 1.199-0.855 1.709 0 0.593 0.912 0.683 0.912 1.429 0 0.606-0.867 1.308-0.867 2.092 0 0.612 0.427 1.11 1.084 1.186-0.217 0.045-0.402 0.083-0.606 0.083-1.199 0-2.437-0.989-2.437-2.162 0-0.58 0.249-1.091 0.631-1.461 0.332 0.287 0.67 0.472 0.887 0.472 0.191 0 0.274-0.096 0.274-0.236-0.013-0.434-1.754-0.848-1.76-1.78zM6.959 21.699c-0.045-0.427-0.434-0.746-0.829-0.695-0.153 0.019-0.3 0.077-0.395 0.159-0.108-0.357-0.44-0.663-0.899-0.593-0.415 0.070-0.689 0.421-0.644 0.867 0.006 0.077 0.032 0.153 0.064 0.236 0 0-0.070 0.013-0.121 0.019-0.345 0.064-0.727 0.415-0.663 0.867 0.051 0.408 0.427 0.714 0.855 0.663 0.153-0.019 0.3-0.057 0.395-0.121 0.096 0.383 0.408 0.625 0.835 0.568 0.44-0.057 0.734-0.402 0.689-0.842-0.013-0.121-0.038-0.191-0.070-0.274 0 0 0.057-0.006 0.102-0.013 0.427-0.083 0.721-0.427 0.683-0.842zM5.294 22.592c-0.249 0.032-0.472-0.147-0.504-0.395s0.147-0.472 0.396-0.504c0.255-0.032 0.478 0.153 0.504 0.396 0.032 0.249-0.147 0.472-0.395 0.504z"></path>
</symbol>
<symbol id="icon-nike" viewBox="0 0 32 32">
<path d="M32 10.4l-23.411 9.968c-1.941 0.821-3.572 1.233-4.891 1.233-1.493 0-2.577-0.523-3.249-1.569-0.423-0.672-0.547-1.524-0.373-2.557s0.635-2.133 1.381-3.304c0.623-0.947 1.643-2.191 3.063-3.733-0.456 0.708-0.816 1.53-1.034 2.408l-0.012 0.056c-0.373 1.593-0.037 2.763 1.008 3.509 0.497 0.348 1.181 0.523 2.053 0.523 0.696 0 1.48-0.112 2.352-0.336l23.112-6.197z"></path>
</symbol>
<symbol id="icon-animalplanet" viewBox="0 0 32 32">
<path d="M25.085 7.92l-0.659 1.144c3.473 0.679 5.491 2.157 5.491 3.889 0 1.153-0.865 2.261-2.349 2.261-2.265 0-3.932-3.564-3.932-3.564-0.475-0.015-1.324-0.035-1.324-0.035s-2.429-3.123-6.127-4.224v5.064c0.325 0.273 0.745 0.665 1.14 1.151-1.669-1.009-3.403-1.756-6.463-1.756-3.328 0-7.396 1.343-9.656 5.017l0.237 0.429c1.031-1.164 2.624-1.869 2.675-1.888-2.22 1.94-3.493 5.16-4.119 7.255l1.941 1.943c2.622-2.941 6.422-4.784 10.652-4.784 0.031 0 0.062 0 0.093 0l-0.005-0c3.693 0 7.443 1.543 10.045 4.209l2.103-2.105c-1.765-3.017-3.899-5.148-3.963-5.212 0.091 0.041 1.983 1.133 5.3 1.133 3.083 0 5.833-1.713 5.833-4.271 0-3.056-2.62-4.993-6.915-5.657z"></path>
</symbol>
<symbol id="icon-amazon" viewBox="0 0 32 32">
<path d="M0.060 24.027c0.096-0.155 0.249-0.165 0.464-0.029 4.848 2.813 10.125 4.221 15.827 4.221 3.803 0 7.557-0.711 11.263-2.127l0.42-0.187c0.184-0.080 0.312-0.133 0.391-0.173 0.301-0.117 0.52-0.061 0.7 0.173 0.16 0.232 0.12 0.448-0.16 0.64-0.341 0.253-0.8 0.547-1.341 0.872-1.659 0.991-3.52 1.755-5.58 2.301-1.837 0.516-3.947 0.813-6.126 0.813-3.049 0-5.962-0.581-8.634-1.638l0.159 0.055c-2.791-1.11-5.191-2.619-7.261-4.486l0.021 0.019c-0.133-0.099-0.201-0.2-0.201-0.293 0-0.063 0.028-0.12 0.068-0.173zM8.813 15.736c0-1.34 0.329-2.484 0.991-3.436 0.66-0.947 1.56-1.667 2.72-2.153 1.061-0.447 2.341-0.767 3.883-0.96 0.52-0.061 1.377-0.137 2.56-0.232v-0.493c0-1.24-0.14-2.077-0.4-2.5-0.403-0.573-1.040-0.867-1.92-0.867h-0.243c-0.64 0.061-1.195 0.261-1.661 0.613-0.467 0.36-0.767 0.84-0.9 1.461-0.080 0.4-0.275 0.62-0.58 0.68l-3.36-0.42c-0.331-0.080-0.496-0.24-0.496-0.52 0-0.061 0.009-0.12 0.029-0.2 0.329-1.72 1.14-3 2.427-3.84 1.301-0.821 2.8-1.3 4.52-1.4h0.72c2.2 0 3.943 0.579 5.184 1.72 0.18 0.2 0.36 0.4 0.54 0.64 0.16 0.22 0.299 0.419 0.377 0.6 0.1 0.179 0.2 0.44 0.26 0.76 0.080 0.339 0.14 0.56 0.18 0.68 0.040 0.139 0.083 0.4 0.101 0.82 0.013 0.417 0.027 0.657 0.027 0.737v7.040c0 0.501 0.080 0.96 0.22 1.381 0.14 0.417 0.28 0.72 0.42 0.899l0.68 0.899c0.12 0.181 0.181 0.341 0.181 0.48 0 0.16-0.080 0.301-0.24 0.419-1.6 1.4-2.48 2.16-2.617 2.28-0.22 0.18-0.5 0.2-0.84 0.060-0.253-0.212-0.482-0.429-0.698-0.657l-0.004-0.004-0.413-0.463c-0.125-0.154-0.263-0.336-0.397-0.523l-0.026-0.037-0.4-0.58c-1.080 1.181-2.137 1.92-3.2 2.22-0.659 0.2-1.457 0.303-2.44 0.303-1.48 0-2.72-0.457-3.68-1.379-0.96-0.92-1.44-2.22-1.44-3.92l-0.067-0.101zM13.817 15.152c0 0.755 0.187 1.36 0.567 1.819 0.38 0.453 0.9 0.683 1.54 0.683 0.060 0 0.141-0.009 0.26-0.027 0.12-0.021 0.179-0.031 0.221-0.031 0.819-0.213 1.44-0.737 1.899-1.571 0.22-0.373 0.38-0.773 0.48-1.213 0.12-0.427 0.16-0.787 0.18-1.067 0.020-0.26 0.020-0.72 0.020-1.34v-0.72c-1.12 0-1.979 0.080-2.56 0.24-1.7 0.48-2.56 1.56-2.56 3.24l-0.047-0.027zM26.033 24.521c0.040-0.080 0.1-0.147 0.176-0.227 0.483-0.324 0.952-0.547 1.4-0.667 0.632-0.168 1.368-0.282 2.125-0.319l0.025-0.001c0.187-0.016 0.373 0 0.547 0.040 0.867 0.080 1.4 0.224 1.563 0.44 0.084 0.12 0.132 0.304 0.132 0.52v0.2c0 0.68-0.199 1.48-0.565 2.4-0.371 0.92-0.885 1.664-1.541 2.24-0.097 0.080-0.187 0.12-0.263 0.12-0.040 0-0.080 0-0.12-0.016-0.12-0.059-0.143-0.16-0.085-0.32 0.72-1.68 1.075-2.857 1.075-3.52 0-0.2-0.040-0.36-0.116-0.459-0.193-0.221-0.733-0.343-1.632-0.343-0.324 0-0.711 0.021-1.16 0.061-0.484 0.060-0.933 0.12-1.333 0.18-0.12 0-0.197-0.019-0.24-0.059-0.040-0.040-0.048-0.063-0.027-0.103 0-0.023 0.008-0.040 0.027-0.084v-0.080z"></path>
</symbol>
<symbol id="icon-alfaromeo" viewBox="0 0 32 32">
<path d="M18.052 7.207c0.159 0 0.288-0.129 0.288-0.288s-0.129-0.288-0.288-0.288v0c-0.159 0-0.288 0.129-0.288 0.288s0.129 0.288 0.288 0.288v0zM5.645 9.308l-0.871 1.732-1.782-0.933-0.368 0.735c0.036-0.008 0.078-0.013 0.121-0.013 0 0 0.001 0 0.001 0h-0c0.074 0 0.148 0.014 0.205 0.040l1.99 1.042 1.183-2.352zM26.607 9.885l0.415-0.225 0.679 1.306 0.466-0.253-0.679-1.305 0.396-0.214 0.978 1.879 0.466-0.253-1.352-2.598c-0.049 0.115-0.145 0.212-0.22 0.252l-1.935 1.049 1.343 2.581 0.466-0.253zM16.892 7.207c0.159 0 0.288-0.129 0.288-0.288s-0.129-0.288-0.288-0.288v0c-0.159 0-0.288 0.129-0.288 0.288s0.129 0.288 0.288 0.288v0zM23.635 9.232l0.004 0.004c1.598 1.8 2.568 4.169 2.568 6.764 0 4.138-2.466 7.7-6.009 9.297-0.012 0.006-0.024 0.012-0.036 0.018l0.003-0.002 0.033-0.015c0.579-0.275 0.98-0.865 0.98-1.549 0-0.948-0.768-1.715-1.716-1.715l-1.806-0.002c-0.122 0-0.221-0.099-0.221-0.221s0.099-0.221 0.221-0.221h3.050c1.436 0 2.599-1.164 2.599-2.6s-1.164-2.6-2.599-2.6l-2.945 0c-0.002 0-0.004 0-0.005 0-0.122 0-0.221-0.099-0.221-0.221s0.099-0.221 0.221-0.221c0.002 0 0.004 0 0.006 0h-0l2.249-0.003c2.373 0 4.297-1.924 4.297-4.297 0-0.002 0-0.004 0-0.007 0-0.877-0.264-1.693-0.717-2.372l0.010 0.016-0.011-0.016c-0.004-0.005-0.006-0.011-0.006-0.018v-0c0-0.017 0.014-0.031 0.031-0.031 0.011 0 0.015 0.002 0.021 0.010zM19.291 25.656c-0.975 0.342-2.098 0.539-3.268 0.539-0.004 0-0.008 0-0.012 0h0.001c-1.531 0-2.982-0.338-4.285-0.943v-8.034h2.887c-0.104-0.303-0.164-0.653-0.164-1.017 0-0.001 0-0.002 0-0.004v0c0-0.537 0.131-1.044 0.363-1.491h-3.086v-7.959c1.303-0.605 2.754-0.943 4.285-0.943 1.78 0 3.453 0.456 4.909 1.258h0.001c0.208 0.132 0.347 0.364 0.347 0.629 0 0.41-0.333 0.743-0.743 0.743-0 0-0 0-0 0v0l-0.016-0.001-1.252 0.001c-0.357 0-0.553 0.105-0.675 0.212-0.354 0.307-0.233 0.671-0.959 0.671h-2.003c0.271 0.625 0.893 1.076 1.047 1.181h2.46c0.099 0 0.185 0.061 0.22 0.148l0.001 0.002c0.012 0.025 0.018 0.054 0.018 0.085 0 0.016-0.002 0.031-0.005 0.045l0-0.001c-0.020 0.113-0.117 0.198-0.234 0.198h-2.504c-0.192 0.101-0.777 0.465-1.047 1.288h4.52c0.295 0 0.534 0.239 0.534 0.534s-0.239 0.534-0.534 0.534l-2.289-0c-1.578 0-2.857 1.279-2.857 2.857s1.279 2.858 2.857 2.858h2.855c0.122 0 0.221 0.102 0.221 0.224-0 0.12-0.098 0.218-0.218 0.218-0.001 0-0.002 0-0.003 0h-2.924c-1.156 0-2.093 0.937-2.093 2.093s0.937 2.093 2.093 2.093l1.105 0.004c0.558 0 1.018 0.468 1.018 1.022 0 0.453-0.273 0.772-0.569 0.954zM9.217 14.707h-3.317c0.316-2.495 1.534-4.709 3.317-6.305zM9.217 23.598c-1.801-1.612-3.025-3.854-3.326-6.38h3.326zM16.013 5.254c-5.935 0-10.746 4.811-10.746 10.746s4.811 10.746 10.746 10.746c5.935 0 10.746-4.811 10.746-10.746s-4.811-10.746-10.746-10.746zM15.612 7.933h2.536c0.106-0 0.192-0.086 0.192-0.192v-0c-0-0.106-0.086-0.192-0.192-0.192h-2.536c-0.106 0-0.192 0.086-0.192 0.192v0c0 0.106 0.087 0.192 0.192 0.192zM15.708 7.207c0.159 0 0.288-0.129 0.288-0.288s-0.129-0.288-0.288-0.288v0c-0.159 0-0.288 0.129-0.288 0.288s0.129 0.288 0.288 0.288v0zM16.106 10.743l0.036-0.034v-0l-0.036-0.035c-0.561-0.408-0.81-0.913-0.96-1.303-0.104-0.269-0.22-0.491-0.39-0.652-0.176-0.168-0.305-0.257-0.559-0.257-0.109 0.001-0.215 0.015-0.316 0.041l0.009-0.002-0.061 0.015 0.038 0.070c0.056 0.104 0.161 0.298 0.343 0.354 0.013 0.004 0.028 0.006 0.044 0.006 0.001 0 0.002 0 0.004-0h-0c0.016-0 0.031-0.001 0.046-0.003l-0.002 0c0.012-0.001 0.024-0.002 0.035-0.002 0.012 0 0.016 0.002 0.017 0.002 0.197 0.114 0.301 0.955 0.301 1.375 0 0.072-0.030 0.104-0.096 0.104s-0.151-0.036-0.204-0.085c-0.116-0.125-0.281-0.195-0.463-0.195-0.296 0-0.611 0.2-0.623 0.534v0.068c0.013 0.334 0.327 0.534 0.623 0.534 0.182 0 0.347-0.070 0.463-0.195 0.053-0.049 0.138-0.085 0.204-0.085s0.096 0.032 0.096 0.104c0 0.419-0.103 1.261-0.301 1.375 0 0-0.004 0.002-0.017 0.002s-0.024-0.001-0.036-0.002l0.002 0c-0.013-0.001-0.028-0.002-0.044-0.003h-0c-0.001-0-0.002-0-0.004-0-0.016 0-0.031 0.002-0.045 0.006l0.001-0c-0.183 0.056-0.287 0.25-0.343 0.354l-0.038 0.070 0.061 0.015c0.092 0.024 0.198 0.038 0.306 0.039h0.001c0.254 0 0.383-0.089 0.559-0.257 0.17-0.162 0.286-0.383 0.39-0.652 0.15-0.391 0.399-0.896 0.96-1.303zM3.518 13.573l-0.163 1.071-0.933-0.705zM1.819 14.423c0.038-0.016 0.081-0.026 0.127-0.026 0.001 0 0.001 0 0.002 0h-0c0 0 0.001 0 0.001 0 0.060 0 0.116 0.016 0.165 0.043l-0.002-0.001 0.004 0.002 2.035 1.565 0.103-0.68-0.414-0.311 0.248-1.632 0.485-0.162 0.103-0.679-2.708 0.911zM16 31.36c-8.483 0-15.36-6.877-15.36-15.36s6.877-15.36 15.36-15.36c8.483 0 15.36 6.877 15.36 15.36s-6.877 15.36-15.36 15.36zM16 0c-8.836 0-16 7.163-16 16s7.164 16 16 16c8.837 0 16-7.163 16-16s-7.163-16-16-16zM19.557 3.524c0.106-0.307 0.366-0.476 0.734-0.476 0.154 0 0.317 0.031 0.485 0.091 0.586 0.211 0.866 0.634 0.713 1.077-0.106 0.308-0.367 0.479-0.735 0.479-0.155 0-0.319-0.031-0.489-0.092-0.585-0.21-0.863-0.634-0.709-1.079zM20.080 5.147c0.26 0.093 0.519 0.141 0.769 0.141h0c0.634 0 1.119-0.311 1.299-0.832 0.127-0.368 0.069-0.76-0.162-1.104-0.221-0.329-0.584-0.597-1.024-0.755-0.254-0.091-0.509-0.137-0.758-0.137-0.639 0-1.127 0.309-1.306 0.827-0.256 0.74 0.241 1.523 1.182 1.861zM24.206 5.359l-0.245 1.941 0.031 0.029 1.858-0.435-1.021 1.383 0.501 0.467 1.549-2.044-0.576-0.536-1.621 0.363 0.198-1.689-0.677-0.63c-0.006 0.122-0.057 0.245-0.126 0.312l-1.606 1.56 0.504 0.47zM29.038 15.334c-0.037 0.007-0.079 0.011-0.122 0.011h-0c-0.401 0-0.709-0.35-0.803-0.914-0.103-0.623 0.125-1.077 0.583-1.156 0.036-0.006 0.078-0.010 0.12-0.010h0c0.395 0 0.709 0.357 0.801 0.91 0.104 0.625-0.123 1.080-0.579 1.159zM30.171 14.079c-0.15-0.898-0.723-1.526-1.395-1.526-0.070 0-0.138 0.006-0.205 0.018l0.007-0.001c-0.757 0.132-1.186 0.955-1.019 1.958 0.152 0.914 0.713 1.529 1.394 1.529 0.071-0 0.141-0.006 0.209-0.019l-0.007 0.001c0.755-0.131 1.182-0.956 1.015-1.961zM16.576 2.303h0c0.215 0 0.361 0.154 0.363 0.384 0.002 0.232-0.139 0.378-0.367 0.379l-1.319 0.012-0.007-0.763zM14.583 4.334l0.681-0.006-0.006-0.709 1.143-0.010 0.499 0.706 0.759-0.007-0.574-0.76 0.071-0.034c0.292-0.14 0.457-0.431 0.454-0.798-0.005-0.579-0.387-0.954-0.972-0.954l-2.198 0.019c0.071 0.086 0.116 0.2 0.123 0.295zM10.071 4.765l-0.939 0.54-0.030-1.169zM8.518 4.203l0.001 0.005 0.045 2.569 0.596-0.343-0.014-0.518 1.431-0.823 0.429 0.279 0.595-0.342-2.399-1.551-0.853 0.487c0.088 0.049 0.151 0.134 0.17 0.235l0 0.002zM4.997 7.433l1.612 1.547 0.468-0.507-0.594-0.57 0.992-1.077-0.385-0.37-0.992 1.077-0.459-0.44 1.428-1.55-0.385-0.369-1.981 2.151c0.104 0.007 0.219 0.048 0.293 0.107l0.002 0.002z"></path>
</symbol>
<symbol id="icon-k" viewBox="0 0 32 32">
<path d="M0 0.003v31.996h32v-31.996h-32zM14.616 7.459c3.147 0 5.924 0.555 5.065 3.231-0.579 1.82-2.689 2.557-4.152 2.812l-3.676 0.652c-0.873 0.152-1.385 0.369-1.733 0.732h8.016l-1.091 3.372 4.595-3.372h5.007l-5.455 3.696 2.76 5.869h-5.021l-1.443-3.672-1.596 1.101-0.825 2.571h-3.772l2.291-7.165h-8.333c1.247-3.685 3.936-4.805 6.389-5.3l3.019-0.609c0.516-0.093 0.853-0.345 0.981-0.743 0.181-0.555-0.427-0.775-1.325-0.775-1.045 0-2.139 0.099-2.645 1.34h-4.143c1.345-3.299 4.644-3.74 7.088-3.74z"></path>
</symbol>
<symbol id="icon-email" viewBox="0 0 32 32">
<path d="M28 4h-24c-1.65 0-2.985 1.35-2.985 3l-0.015 18c0 1.65 1.35 3 3 3h24c1.65 0 3-1.35 3-3v-18c0-1.65-1.35-3-3-3zM27.4 10.375l-10.605 6.63c-0.48 0.3-1.11 0.3-1.59 0l-10.605-6.63c-0.375-0.24-0.6-0.645-0.6-1.080 0-1.005 1.095-1.605 1.95-1.080l10.050 6.285 10.050-6.285c0.855-0.525 1.95 0.075 1.95 1.080 0 0.435-0.225 0.84-0.6 1.080z"></path>
</symbol>
<symbol id="icon-phone" viewBox="0 0 32 32">
<path d="M27.419 20.852l-4.201-0.48c-1.009-0.116-2.002 0.232-2.713 0.943l-3.044 3.044c-4.681-2.382-8.519-6.203-10.901-10.901l3.060-3.060c0.711-0.711 1.059-1.704 0.943-2.713l-0.48-4.168c-0.198-1.671-1.604-2.928-3.292-2.928h-2.862c-1.869 0-3.424 1.555-3.308 3.424 0.877 14.126 12.174 25.407 26.284 26.284 1.869 0.116 3.424-1.439 3.424-3.308v-2.861c0.016-1.671-1.241-3.077-2.911-3.275z"></path>
</symbol>
<symbol id="icon-person" viewBox="0 0 32 32">
<path d="M16 16c2.947 0 5.333-2.387 5.333-5.333s-2.387-5.333-5.333-5.333c-2.947 0-5.333 2.387-5.333 5.333s2.387 5.333 5.333 5.333zM16 18.667c-3.56 0-10.667 1.787-10.667 5.333v1.333c0 0.733 0.6 1.333 1.333 1.333h18.667c0.733 0 1.333-0.6 1.333-1.333v-1.333c0-3.547-7.107-5.333-10.667-5.333z"></path>
</symbol>
<symbol id="icon-telegram" viewBox="0 0 32 32">
<path d="M31.36 0.057l-30.72 17.274 9.818 3.635 15.142-14.191-11.518 15.533 0.009 0.004-0.012-0.004v8.459l5.506-6.421 6.974 2.582 4.8-26.871z"></path>
</symbol>
<symbol id="icon-linkedin" viewBox="0 0 32 32">
<path d="M31.992 32v-0.001h0.008v-11.736c0-5.741-1.236-10.164-7.948-10.164-3.227 0-5.392 1.771-6.276 3.449h-0.093v-2.913h-6.364v21.364h6.627v-10.579c0-2.785 0.528-5.479 3.977-5.479 3.399 0 3.449 3.179 3.449 5.657v10.401h6.62z"></path>
<path d="M0.528 10.636h6.635v21.364h-6.635v-21.364z"></path>
<path d="M3.843 0c-2.121 0-3.843 1.721-3.843 3.843s1.721 3.879 3.843 3.879c2.121 0 3.843-1.757 3.843-3.879-0.001-2.121-1.723-3.843-3.843-3.843v0z"></path>
</symbol>
<symbol id="icon-facebook" viewBox="0 0 32 32">
<path d="M21.329 5.313h2.921v-5.088c-0.504-0.069-2.237-0.225-4.256-0.225-4.212 0-7.097 2.649-7.097 7.519v4.481h-4.648v5.688h4.648v14.312h5.699v-14.311h4.46l0.708-5.688h-5.169v-3.919c0.001-1.644 0.444-2.769 2.735-2.769z"></path>
</symbol>
<symbol id="icon-Twiter" viewBox="0 0 32 32">
<path d="M32 6.078c-1.19 0.522-2.458 0.868-3.78 1.036 1.36-0.812 2.398-2.088 2.886-3.626-1.268 0.756-2.668 1.29-4.16 1.588-1.204-1.282-2.92-2.076-4.792-2.076-3.632 0-6.556 2.948-6.556 6.562 0 0.52 0.044 1.020 0.152 1.496-5.454-0.266-10.28-2.88-13.522-6.862-0.566 0.982-0.898 2.106-0.898 3.316 0 2.272 1.17 4.286 2.914 5.452-1.054-0.020-2.088-0.326-2.964-0.808 0 0.020 0 0.046 0 0.072 0 3.188 2.274 5.836 5.256 6.446-0.534 0.146-1.116 0.216-1.72 0.216-0.42 0-0.844-0.024-1.242-0.112 0.85 2.598 3.262 4.508 6.13 4.57-2.232 1.746-5.066 2.798-8.134 2.798-0.538 0-1.054-0.024-1.57-0.090 2.906 1.874 6.35 2.944 10.064 2.944 12.072 0 18.672-10 18.672-18.668 0-0.29-0.010-0.57-0.024-0.848 1.302-0.924 2.396-2.078 3.288-3.406z"></path>
</symbol>
<symbol id="icon-instagram" viewBox="0 0 32 32">
<path d="M31.969 9.408c-0.075-1.7-0.35-2.869-0.744-3.882-0.406-1.075-1.032-2.038-1.851-2.838-0.8-0.813-1.769-1.444-2.832-1.844-1.019-0.394-2.182-0.669-3.882-0.744-1.713-0.081-2.257-0.1-6.601-0.1s-4.888 0.019-6.595 0.094c-1.7 0.075-2.869 0.35-3.882 0.744-1.075 0.406-2.038 1.031-2.838 1.85-0.813 0.8-1.444 1.769-1.844 2.832-0.394 1.019-0.669 2.182-0.744 3.882-0.081 1.713-0.1 2.257-0.1 6.601s0.019 4.888 0.094 6.595c0.075 1.7 0.35 2.869 0.744 3.882 0.406 1.075 1.038 2.038 1.85 2.838 0.8 0.813 1.769 1.444 2.832 1.844 1.019 0.394 2.182 0.669 3.882 0.744 1.706 0.075 2.25 0.094 6.595 0.094s4.888-0.019 6.595-0.094c1.7-0.075 2.869-0.35 3.882-0.744 2.151-0.832 3.851-2.532 4.682-4.682 0.394-1.019 0.669-2.182 0.744-3.882 0.075-1.707 0.094-2.251 0.094-6.595s-0.006-4.888-0.081-6.595zM29.087 22.473c-0.069 1.563-0.331 2.407-0.55 2.969-0.538 1.394-1.644 2.5-3.038 3.038-0.563 0.219-1.413 0.481-2.969 0.55-1.688 0.075-2.194 0.094-6.464 0.094s-4.782-0.019-6.464-0.094c-1.563-0.069-2.407-0.331-2.969-0.55-0.694-0.256-1.325-0.663-1.838-1.194-0.531-0.519-0.938-1.144-1.194-1.838-0.219-0.563-0.481-1.413-0.55-2.969-0.075-1.688-0.094-2.194-0.094-6.464s0.019-4.782 0.094-6.464c0.069-1.563 0.331-2.407 0.55-2.969 0.256-0.694 0.663-1.325 1.2-1.838 0.519-0.531 1.144-0.938 1.838-1.194 0.563-0.219 1.413-0.481 2.969-0.55 1.688-0.075 2.194-0.094 6.464-0.094 4.276 0 4.782 0.019 6.464 0.094 1.563 0.069 2.407 0.331 2.969 0.55 0.694 0.256 1.325 0.662 1.838 1.194 0.531 0.519 0.938 1.144 1.194 1.838 0.219 0.563 0.481 1.413 0.55 2.969 0.075 1.688 0.094 2.194 0.094 6.464s-0.019 4.77-0.094 6.458z"></path>
<path d="M16.059 7.783c-4.538 0-8.22 3.682-8.22 8.22s3.682 8.22 8.22 8.22c4.539 0 8.22-3.682 8.22-8.22s-3.682-8.22-8.22-8.22zM16.059 21.335c-2.944 0-5.332-2.388-5.332-5.332s2.388-5.332 5.332-5.332c2.944 0 5.332 2.388 5.332 5.332s-2.388 5.332-5.332 5.332z"></path>
<path d="M26.524 7.458c0 1.060-0.859 1.919-1.919 1.919s-1.919-0.859-1.919-1.919c0-1.060 0.859-1.919 1.919-1.919s1.919 0.859 1.919 1.919z"></path>
</symbol>
<symbol id="icon-astronaut" viewBox="0 0 32 32">
<path fill="#2196f3" style="fill: var(--color4, #2196f3)" d="M31.974 4.524c-0.063-0.193-0.229-0.333-0.43-0.363l-1.91-0.278-0.855-1.731c-0.179-0.365-0.777-0.365-0.956 0l-0.855 1.731-1.91 0.278c-0.201 0.029-0.367 0.17-0.431 0.363-0.062 0.193-0.011 0.405 0.135 0.547l1.383 1.348-0.326 1.903c-0.034 0.2 0.048 0.402 0.212 0.522 0.166 0.121 0.382 0.135 0.562 0.040l1.709-0.899 1.709 0.899c0.078 0.041 0.164 0.061 0.249 0.061 0.11 0 0.221-0.034 0.314-0.102 0.164-0.119 0.246-0.322 0.212-0.522l-0.326-1.903 1.383-1.348c0.145-0.142 0.197-0.354 0.135-0.547zM29.511 5.851c-0.125 0.122-0.183 0.299-0.153 0.472l0.191 1.114-1-0.526c-0.078-0.041-0.163-0.061-0.249-0.061s-0.17 0.020-0.249 0.061l-1.001 0.526 0.191-1.114c0.030-0.173-0.028-0.349-0.153-0.472l-0.81-0.789 1.119-0.163c0.174-0.025 0.324-0.134 0.402-0.292l0.5-1.013 0.5 1.013c0.078 0.157 0.228 0.267 0.402 0.292l1.119 0.163-0.809 0.789z"></path>
<path fill="#2196f3" style="fill: var(--color4, #2196f3)" d="M26.133 20.522h-1.067v1.067h1.067v-1.067z"></path>
<path fill="#2196f3" style="fill: var(--color4, #2196f3)" d="M26.133 22.656h-1.067v1.067h1.067v-1.067z"></path>
<path fill="#2196f3" style="fill: var(--color4, #2196f3)" d="M27.2 21.589h-1.067v1.067h1.067v-1.067z"></path>
<path fill="#2196f3" style="fill: var(--color4, #2196f3)" d="M25.067 21.589h-1.067v1.067h1.067v-1.067z"></path>
<path fill="#2196f3" style="fill: var(--color4, #2196f3)" d="M22.4 26.389h-1.067v1.067h1.067v-1.067z"></path>
<path fill="#2196f3" style="fill: var(--color4, #2196f3)" d="M22.4 28.522h-1.067v1.067h1.067v-1.067z"></path>
<path fill="#2196f3" style="fill: var(--color4, #2196f3)" d="M23.467 27.456h-1.067v1.067h1.067v-1.067z"></path>
<path fill="#2196f3" style="fill: var(--color4, #2196f3)" d="M21.333 27.456h-1.067v1.067h1.067v-1.067z"></path>
<path fill="#2196f3" style="fill: var(--color4, #2196f3)" d="M16 24.256h-1.067v1.067h1.067v-1.067z"></path>
<path fill="#2196f3" style="fill: var(--color4, #2196f3)" d="M16 26.389h-1.067v1.067h1.067v-1.067z"></path>
<path fill="#2196f3" style="fill: var(--color4, #2196f3)" d="M17.067 25.322h-1.067v1.067h1.067v-1.067z"></path>
<path fill="#2196f3" style="fill: var(--color4, #2196f3)" d="M14.933 25.322h-1.067v1.067h1.067v-1.067z"></path>
<path fill="#2196f3" style="fill: var(--color4, #2196f3)" d="M5.867 6.122h-1.067v1.067h1.067v-1.067z"></path>
<path fill="#2196f3" style="fill: var(--color4, #2196f3)" d="M5.867 8.255h-1.067v1.067h1.067v-1.067z"></path>
<path fill="#2196f3" style="fill: var(--color4, #2196f3)" d="M6.933 7.189h-1.067v1.067h1.067v-1.067z"></path>
<path fill="#2196f3" style="fill: var(--color4, #2196f3)" d="M4.8 7.189h-1.067v1.067h1.067v-1.067z"></path>
<path fill="#212121" style="fill: var(--color5, #212121)" d="M24.715 14.159c-0.287-0.388-0.709-0.637-1.188-0.705-0.481-0.068-0.956 0.058-1.34 0.352l-1.252 0.96-1.898 1.417-1.358-0.541c2.421-1.086 4.114-3.508 4.114-6.32 0-3.823-3.123-6.933-6.961-6.933s-6.961 3.11-6.961 6.933c0 1.386 0.414 2.674 1.12 3.758l-2.764-0.024c-0.002 0-0.003 0-0.005 0-0.009 0-0.015 0.004-0.023 0.005-0.053 0.002-0.105 0.013-0.155 0.031-0.013 0.005-0.026 0.008-0.038 0.013-0.006 0.003-0.013 0.003-0.019 0.006l-3.233 1.596c-0.001 0-0.001 0-0.001 0.001l-1.893 0.911c-0.021 0.009-0.042 0.021-0.063 0.035-0.755 0.502-1.012 1.489-0.598 2.295 0.22 0.429 0.595 0.745 1.056 0.889 0.178 0.055 0.359 0.083 0.539 0.083 0.29 0 0.577-0.071 0.839-0.211l1.388-0.738 2.264-1.169 1.357-0.008-5.442 5.416c-0.001 0.001-0.001 0.001-0.002 0.001l-1.339 1.333c-0.316 0.315-0.49 0.732-0.49 1.178s0.174 0.863 0.49 1.179c0.325 0.323 0.752 0.485 1.179 0.485s0.854-0.162 1.18-0.485l1.314-1.309 1.741-1.3 0.901 0.897-1.762 1.754c-0 0.001-0.001 0.001-0.002 0.001l-1.339 1.333c-0.316 0.315-0.49 0.732-0.49 1.178s0.174 0.863 0.49 1.179c0.325 0.323 0.753 0.485 1.18 0.485s0.855-0.162 1.18-0.485l3.482-3.467c0.001-0.001 0.001-0.001 0.001-0.002l1.010-1-0.004-0.004c0.006-0.006 0.015-0.009 0.022-0.015l5.166-5.658 3.471 0.494c0.025 0.004 0.050 0.005 0.075 0.005 0.065 0 0.127-0.015 0.187-0.038 0.018-0.006 0.033-0.015 0.050-0.023 0.019-0.010 0.039-0.015 0.058-0.027l3.213-2.133c0.012-0.008 0.018-0.021 0.029-0.029 0.013-0.010 0.029-0.014 0.041-0.026l1.271-1.191c0.662-0.62 0.753-1.635 0.212-2.362zM2.13 17.77c-0.173 0.093-0.37 0.111-0.558 0.052-0.187-0.058-0.338-0.186-0.427-0.358-0.161-0.314-0.068-0.695 0.214-0.902l1.314-0.632 0.449 1.312-0.992 0.528zM5.628 15.942l-1.548 0.8-0.439-1.283 2.027-1.001-0.040 1.484zM20.727 9.322c0 0.918-0.219 1.785-0.599 2.559l-4.181-1.899c-0.044-0.573-0.341-1.075-0.788-1.388l1.464-4.86c2.378 0.756 4.105 2.974 4.105 5.588zM8.938 9.322c0-3.235 2.644-5.867 5.894-5.867 0.253 0 0.5 0.021 0.745 0.052l-1.432 4.754c-0.019-0.001-0.037-0.006-0.057-0.006-1.033 0-1.873 0.837-1.873 1.867s0.84 1.867 1.873 1.867c0.694 0 1.294-0.383 1.618-0.945l3.862 1.755c-1.075 1.446-2.795 2.39-4.737 2.39-3.25 0-5.894-2.632-5.894-5.867zM14.894 10.122c0 0.441-0.362 0.8-0.806 0.8s-0.806-0.359-0.806-0.8c0-0.441 0.362-0.8 0.806-0.8s0.806 0.359 0.806 0.8zM2.465 25.146c-0.236 0.234-0.619 0.234-0.854 0.001-0.114-0.114-0.176-0.263-0.176-0.423s0.062-0.309 0.176-0.421l0.962-0.958 0.851 0.848-0.959 0.955zM5.679 28.88c-0.236 0.234-0.619 0.235-0.855 0.001-0.114-0.114-0.176-0.263-0.176-0.423s0.062-0.309 0.176-0.421l0.963-0.959 0.852 0.848-0.96 0.955zM9.16 25.411c-0.001 0-0.001 0-0.002 0.001l-1.765 1.76-0.852-0.848 1.763-1.755c0 0 0 0 0-0s0.001-0.001 0.002-0.001c0.040-0.040 0.065-0.088 0.090-0.135 0.007-0.014 0.020-0.026 0.026-0.040 0.017-0.041 0.019-0.085 0.026-0.129 0.003-0.025 0.014-0.047 0.014-0.073 0-0.036-0.013-0.070-0.020-0.106-0.006-0.032-0.006-0.065-0.019-0.095-0.020-0.050-0.055-0.094-0.091-0.138-0.010-0.012-0.014-0.027-0.025-0.038 0 0 0 0-0.001 0s-0.001-0.002-0.001-0.002l-1.607-1.6c-0.017-0.017-0.039-0.024-0.058-0.038-0.028-0.022-0.055-0.042-0.087-0.058-0.030-0.015-0.061-0.024-0.093-0.033-0.034-0.010-0.067-0.017-0.103-0.020-0.033-0.002-0.063 0.001-0.095 0.005-0.036 0.004-0.069 0.009-0.104 0.020-0.034 0.011-0.063 0.027-0.094 0.045-0.020 0.011-0.042 0.015-0.061 0.029l-1.773 1.324-0.901-0.897 2.399-2.386 4.361 4.289-0.928 0.919zM15.979 18.394c-0.015-0.002-0.030 0.004-0.045 0.003-0.039-0.002-0.076 0.001-0.115 0.007-0.030 0.005-0.059 0.011-0.088 0.021-0.034 0.012-0.065 0.028-0.097 0.047-0.030 0.018-0.057 0.037-0.083 0.061-0.013 0.011-0.028 0.017-0.040 0.029l-4.698 5.146-4.328-4.257 2.833-2.818c0.209-0.208 0.21-0.546 0.002-0.755-0.105-0.105-0.243-0.157-0.381-0.156v-0.001l-2.219 0.013 0.028-1.607 3.104 0.027c1.265 1.294 3.029 2.101 4.981 2.101 0.437 0 0.864-0.045 1.279-0.123 0.040 0.032 0.079 0.065 0.13 0.085l2.41 0.96 0.152 0.758 0.178 0.885-3.003-0.427zM20.020 18.572l-0.313-1.558 1.446-1.080 0.947 1.257-2.080 1.381zM23.774 15.741l-0.838 0.785-0.931-1.236 0.831-0.637c0.155-0.119 0.351-0.168 0.543-0.143 0.193 0.027 0.364 0.128 0.48 0.284 0.217 0.292 0.18 0.699-0.085 0.947z"></path>
<path fill="#212121" style="fill: var(--color5, #212121)" d="M13.602 18.544l-2.143-2.133c-0.207-0.207-0.545-0.207-0.753 0l-2.142 2.133c-0.1 0.101-0.157 0.236-0.157 0.378s0.056 0.278 0.157 0.378l2.142 2.133c0.104 0.103 0.241 0.155 0.377 0.155s0.273-0.052 0.376-0.155l2.143-2.133c0.1-0.1 0.157-0.236 0.157-0.378s-0.057-0.278-0.157-0.378zM11.083 20.303l-1.387-1.381 1.387-1.381 1.387 1.381-1.387 1.381z"></path>
<path fill="#212121" style="fill: var(--color5, #212121)" d="M17.164 5.071l-0.258 1.036c0.071 0.018 1.738 0.452 1.738 2.149h1.067c-0-2.017-1.666-2.965-2.547-3.185z"></path>
<path fill="#212121" style="fill: var(--color5, #212121)" d="M19.711 9.322h-1.067v1.067h1.067v-1.067z"></path>
</symbol>
<symbol id="icon-diagram" viewBox="0 0 32 32">
<path fill="#2196f3" style="fill: var(--color4, #2196f3)" d="M14.925 14.965h1.066v4.798h-1.066v-4.797z"></path>
<path fill="#2196f3" style="fill: var(--color4, #2196f3)" d="M19.19 17.097h1.066v2.665h-1.066v-2.665z"></path>
<path fill="#2196f3" style="fill: var(--color4, #2196f3)" d="M10.661 18.696h1.066v1.066h-1.066v-1.066z"></path>
<path fill="#2196f3" style="fill: var(--color4, #2196f3)" d="M7.463 18.163h1.066v1.599h-1.066v-1.599z"></path>
<path fill="#212121" style="fill: var(--color5, #212121)" d="M1.599 28.291h25.587c0.883 0 1.599-0.716 1.599-1.599v-2.132c0-0.883-0.716-1.599-1.599-1.599h-0.533v-13.293l3.028-2.868c0.703 0.346 1.553 0.136 2.013-0.499s0.396-1.508-0.152-2.068-1.42-0.644-2.065-0.198c-0.644 0.446-0.873 1.292-0.542 2.002l-2.281 2.163v-1.23c0-0.883-0.716-1.599-1.599-1.599h-21.322c-0.883 0-1.599 0.716-1.599 1.599v15.992h-0.533c-0.883 0-1.599 0.716-1.599 1.599v2.132c0 0.883 0.716 1.599 1.599 1.599zM30.384 4.837c0.294 0 0.533 0.239 0.533 0.533s-0.239 0.533-0.533 0.533c-0.294 0-0.533-0.239-0.533-0.533s0.239-0.533 0.533-0.533zM3.198 6.969c0-0.294 0.239-0.533 0.533-0.533h21.322c0.294 0 0.533 0.239 0.533 0.533v2.239l-1.066 1.013v-2.186c0-0.294-0.239-0.533-0.533-0.533h-19.19c-0.294 0-0.533 0.239-0.533 0.533v13.326c0 0.294 0.239 0.533 0.533 0.533h19.19c0.294 0 0.533-0.239 0.533-0.533v-9.674l1.066-1.010v12.284h-22.388v-15.992zM7.996 13.899c-0.721-0.002-1.354 0.478-1.546 1.174s0.105 1.433 0.725 1.801c0.62 0.368 1.41 0.276 1.928-0.226l1.853 0.93c0.215 0.108 0.476 0.057 0.636-0.123l3.939-4.431 3.872 2.901c0.208 0.156 0.498 0.139 0.686-0.039l3.365-3.188v8.131h-18.124v-12.26h18.124v2.66l-3.771 3.572-3.904-2.927c-0.222-0.166-0.534-0.135-0.718 0.072l-3.993 4.493-1.493-0.746c0.011-0.064 0.018-0.129 0.020-0.193 0-0.883-0.716-1.599-1.599-1.599zM8.529 15.498c0 0.294-0.239 0.533-0.533 0.533s-0.533-0.239-0.533-0.533c0-0.294 0.239-0.533 0.533-0.533s0.533 0.239 0.533 0.533zM11.727 24.027h5.331v0.533c0 0.294-0.239 0.533-0.533 0.533h-4.264c-0.294 0-0.533-0.239-0.533-0.533v-0.533zM1.066 24.56c0-0.294 0.239-0.533 0.533-0.533h9.062v0.533c0 0.883 0.716 1.599 1.599 1.599h4.264c0.883 0 1.599-0.716 1.599-1.599v-0.533h9.062c0.294 0 0.533 0.239 0.533 0.533v2.132c0 0.294-0.239 0.533-0.533 0.533h-25.587c-0.294 0-0.533-0.239-0.533-0.533v-2.132z"></path>
</symbol>
<symbol id="icon-clock" viewBox="0 0 32 32">
<path fill="#212121" style="fill: var(--color5, #212121)" d="M31.297 15.301c-0.002-8.452-6.855-15.303-15.308-15.301s-15.303 6.855-15.301 15.308c0.001 6.658 4.307 12.551 10.649 14.576 0.061 0.019 0.124 0.029 0.187 0.029 0.121-0 0.239-0.032 0.342-0.094 0.135-0.080 0.236-0.207 0.283-0.356l3.865-12.25c1.057-0.005 1.909-0.866 1.903-1.923s-0.866-1.909-1.923-1.903c-0.284 0.001-0.565 0.067-0.82 0.191l-5.106-5.107c-0.253-0.245-0.657-0.238-0.902 0.016-0.239 0.247-0.239 0.639 0 0.886l5.103 5.109c-0.392 0.799-0.168 1.764 0.536 2.309l-3.683 11.673c-7.278-2.681-11.004-10.754-8.323-18.032s10.754-11.004 18.032-8.323 11.004 10.754 8.323 18.032c-1.31 3.556-4.001 6.431-7.462 7.973l-0.398-1.874c-0.073-0.344-0.411-0.565-0.756-0.492-0.109 0.023-0.209 0.074-0.292 0.148l-3.837 3.426c-0.263 0.234-0.287 0.637-0.052 0.9 0.076 0.085 0.174 0.149 0.283 0.184l4.899 1.563c0.335 0.108 0.694-0.077 0.802-0.412 0.034-0.106 0.040-0.219 0.017-0.328l-0.391-1.839c5.664-2.388 9.342-7.942 9.329-14.089zM15.992 14.664c0.352 0 0.638 0.286 0.638 0.638s-0.286 0.638-0.638 0.638c-0.352 0-0.638-0.285-0.638-0.638s0.285-0.638 0.638-0.638zM18.093 29.528l2.184-1.948 0.603 2.84-2.787-0.892z"></path>
<path fill="#2196f3" style="fill: var(--color4, #2196f3)" d="M15.354 3.185v1.275c0 0.352 0.285 0.638 0.638 0.638s0.638-0.285 0.638-0.638v-1.275c0-0.352-0.286-0.638-0.638-0.638s-0.638 0.286-0.638 0.638z"></path>
<path fill="#2196f3" style="fill: var(--color4, #2196f3)" d="M3.876 14.664c-0.352 0-0.638 0.286-0.638 0.638s0.285 0.638 0.638 0.638h1.275c0.352 0 0.638-0.285 0.638-0.638s-0.285-0.638-0.638-0.638h-1.275z"></path>
<path fill="#2196f3" style="fill: var(--color4, #2196f3)" d="M28.108 15.939c0.352 0 0.638-0.285 0.638-0.638s-0.285-0.638-0.638-0.638h-1.275c-0.352 0-0.638 0.286-0.638 0.638s0.286 0.638 0.638 0.638h1.275z"></path>
</symbol>
<symbol id="icon-antenna" viewBox="0 0 32 32">
<path fill="#212121" style="fill: var(--color5, #212121)" d="M30.773 22.098l-8.443-8.505 0.937-4.615c0.242 0.094 0.499 0.144 0.758 0.146h0.006c1.192 0.014 2.17-0.941 2.184-2.133s-0.941-2.17-2.133-2.184c-1.192-0.014-2.17 0.941-2.184 2.133-0.003 0.255 0.039 0.509 0.125 0.749l-4.96 0.605-8.091-8.133c-0.099-0.101-0.235-0.159-0.377-0.16-0.14 0.001-0.274 0.056-0.373 0.155l-1.513 1.504c-0.208 0.208-0.208 0.546 0 0.754l0.814 0.826c-3.153 5.798-2.129 12.978 2.519 17.663 0.043 0.041 0.092 0.074 0.146 0.098-0.034 0.18-0.051 0.364-0.052 0.547v6.187h-6.4c-1.472 0.002-2.665 1.195-2.667 2.667v1.067c0 0.295 0.239 0.533 0.533 0.533h24.533c0.295 0 0.533-0.239 0.533-0.533v-1.067c-0.002-1.472-1.195-2.665-2.667-2.667h-6.4v-2.742c1.003 0.21 2.024 0.317 3.049 0.32 2.458-0.003 4.877-0.615 7.040-1.783l0.818 0.823c0.099 0.101 0.235 0.159 0.377 0.16 0.14-0.001 0.274-0.056 0.373-0.155l1.513-1.504c0.208-0.208 0.208-0.546 0-0.754zM23.28 6.233c0.418-0.415 1.093-0.414 1.508 0.004s0.414 1.093-0.004 1.508c-0.2 0.199-0.47 0.31-0.752 0.31h-0.003c-0.589-0.003-1.064-0.483-1.061-1.072 0.002-0.282 0.115-0.552 0.314-0.751h-0.002zM22.024 9.738l-0.598 2.946-1.175-1.182 1.774-1.763zM21.419 8.836l-1.92 1.909-1.485-1.493 3.405-0.415zM24.004 28.8c0.884 0 1.6 0.716 1.6 1.6v0.533h-23.467v-0.533c0-0.884 0.716-1.6 1.6-1.6h20.267zM16.537 26.667v1.067h-5.333v-1.067h5.333zM11.204 25.6v-4.053c0-1.294 1.196-2.347 2.667-2.347s2.667 1.053 2.667 2.347v4.053h-5.333zM17.604 23.904v-2.357c0-1.882-1.675-3.413-3.733-3.413-1.331-0.020-2.576 0.657-3.281 1.786-4.058-4.274-4.971-10.645-2.279-15.887l18.602 18.708c-2.872 1.461-6.165 1.873-9.309 1.163zM28.893 23.22l-21.057-21.181 0.755-0.752 7.935 7.98c0.004 0 0.006 0.007 0.010 0.010l13.115 13.191-0.757 0.752z"></path>
<path fill="#2196f3" style="fill: var(--color4, #2196f3)" d="M13.876 20.267h-0.005c-0.884-0.001-1.601 0.714-1.602 1.598s0.714 1.601 1.598 1.602h0.005c0.884 0.001 1.601-0.714 1.602-1.598s-0.714-1.601-1.598-1.602zM14.249 22.245c-0.1 0.1-0.236 0.156-0.378 0.155-0.295-0.002-0.532-0.242-0.531-0.536 0.001-0.141 0.057-0.276 0.157-0.375s0.233-0.154 0.373-0.155c0.295 0.002 0.532 0.241 0.53 0.536-0.001 0.141-0.057 0.276-0.157 0.375h0.005z"></path>
</symbol>
<symbol id="icon-email-transparent" viewBox="0 0 32 32">
<path d="M29 4.977h-26c-1.654 0-3 1.345-3 2.999v17.994c0 1.654 1.346 2.999 3 2.999h26c1.654 0 3-1.345 3-2.999v-17.994c0-1.654-1.346-2.999-3-2.999v0zM29 6.976c0.136 0 0.265 0.028 0.383 0.077l-13.383 11.595-13.383-11.595c0.118-0.049 0.247-0.077 0.383-0.077h26zM29 26.969h-26c-0.552 0-1-0.448-1-1v-16.804l13.345 11.561c0.188 0.163 0.422 0.244 0.655 0.244s0.467-0.081 0.655-0.244l13.345-11.561v16.804c0 0.552-0.448 1-1 1v0z"></path>
</symbol>
<symbol id="icon-smartphone" viewBox="0 0 32 32">
<path d="M22.588 1.862h-13.176c-1.557 0-2.824 1.266-2.824 2.823v24.462c0 1.556 1.267 2.822 2.824 2.822h13.176c1.557 0 2.824-1.266 2.824-2.822v-24.462c0-1.556-1.267-2.823-2.824-2.823zM9.412 3.743h13.176c0.519 0 0.941 0.422 0.941 0.941v19.758h-15.059v-19.758c0-0.519 0.422-0.941 0.941-0.941zM22.588 30.087h-13.176c-0.519 0-0.941-0.422-0.941-0.941v-2.823h15.059v2.823c0 0.519-0.422 0.941-0.941 0.941z"></path>
<path d="M11.018 27.714c0.368 0.343 0.368 0.899 0 1.242s-0.963 0.343-1.331 0c-0.368-0.343-0.368-0.899 0-1.242s0.963-0.343 1.331 0z"></path>
</symbol>
<symbol id="icon-home" viewBox="0 0 32 32">
<path d="M32 19l-6-6v-9h-4v5l-6-6-16 16v1h4v10h10v-6h4v6h10v-10h4z"></path>
</symbol>
<symbol id="icon-pencil" viewBox="0 0 32 32">
<path d="M27 0c2.761 0 5 2.239 5 5 0 1.126-0.372 2.164-1 3l-2 2-7-7 2-2c0.836-0.628 1.874-1 3-1zM2 23l-2 9 9-2 18.5-18.5-7-7-18.5 18.5zM22.362 11.362l-14 14-1.724-1.724 14-14 1.724 1.724z"></path>
</symbol>
<symbol id="icon-image" viewBox="0 0 32 32">
<path d="M29.996 4c0.001 0.001 0.003 0.002 0.004 0.004v23.993c-0.001 0.001-0.002 0.003-0.004 0.004h-27.993c-0.001-0.001-0.003-0.002-0.004-0.004v-23.993c0.001-0.001 0.002-0.003 0.004-0.004h27.993zM30 2h-28c-1.1 0-2 0.9-2 2v24c0 1.1 0.9 2 2 2h28c1.1 0 2-0.9 2-2v-24c0-1.1-0.9-2-2-2v0z"></path>
<path d="M26 9c0 1.657-1.343 3-3 3s-3-1.343-3-3 1.343-3 3-3 3 1.343 3 3z"></path>
<path d="M28 26h-24v-4l7-12 8 10h2l7-6z"></path>
</symbol>
<symbol id="icon-cross" viewBox="0 0 32 32">
<path d="M31.708 25.708c-0-0-0-0-0-0l-9.708-9.708 9.708-9.708c0-0 0-0 0-0 0.105-0.105 0.18-0.227 0.229-0.357 0.133-0.356 0.057-0.771-0.229-1.057l-4.586-4.586c-0.286-0.286-0.702-0.361-1.057-0.229-0.13 0.048-0.252 0.124-0.357 0.228 0 0-0 0-0 0l-9.708 9.708-9.708-9.708c-0-0-0-0-0-0-0.105-0.104-0.227-0.18-0.357-0.228-0.356-0.133-0.771-0.057-1.057 0.229l-4.586 4.586c-0.286 0.286-0.361 0.702-0.229 1.057 0.049 0.13 0.124 0.252 0.229 0.357 0 0 0 0 0 0l9.708 9.708-9.708 9.708c-0 0-0 0-0 0-0.104 0.105-0.18 0.227-0.229 0.357-0.133 0.355-0.057 0.771 0.229 1.057l4.586 4.586c0.286 0.286 0.702 0.361 1.057 0.229 0.13-0.049 0.252-0.124 0.357-0.229 0-0 0-0 0-0l9.708-9.708 9.708 9.708c0 0 0 0 0 0 0.105 0.105 0.227 0.18 0.357 0.229 0.356 0.133 0.771 0.057 1.057-0.229l4.586-4.586c0.286-0.286 0.362-0.702 0.229-1.057-0.049-0.13-0.124-0.252-0.229-0.357z"></path>
</symbol>
<symbol id="icon-checkmark" viewBox="0 0 32 32">
<path d="M27 4l-15 15-7-7-5 5 12 12 20-20z"></path>
</symbol>
<symbol id="icon-google" viewBox="0 0 32 32">
<path d="M16.319 13.713v5.487h9.075c-0.369 2.356-2.744 6.9-9.075 6.9-5.463 0-9.919-4.525-9.919-10.1s4.456-10.1 9.919-10.1c3.106 0 5.188 1.325 6.375 2.469l4.344-4.181c-2.788-2.612-6.4-4.188-10.719-4.188-8.844 0-16 7.156-16 16s7.156 16 16 16c9.231 0 15.363-6.494 15.363-15.631 0-1.050-0.113-1.85-0.25-2.65l-15.113-0.006z"></path>
</symbol>
<symbol id="icon-playstation" viewBox="0 0 32 32">
<path fill="#003791" style="fill: var(--color1, #003791)" d="M11.98 3.461v23.397l5.22 1.681v-19.623c0-0.92 0.405-1.535 1.059-1.321 0.848 0.241 1.013 1.085 1.013 2.007v7.835c3.255 1.591 5.816-0.003 5.816-4.204 0-4.316-1.501-6.233-5.917-7.769-1.743-0.597-4.971-1.581-7.188-2.003zM18.188 25.117l8.395-3.033c0.953-0.344 1.101-0.833 0.328-1.091-0.781-0.256-2.183-0.185-3.143 0.164l-5.607 1.999v-3.18l0.32-0.113c0 0 1.601-0.56 3.884-0.82 2.261-0.24 5.047 0.039 7.249 0.881 2.464 0.801 2.721 1.963 2.101 2.763s-2.163 1.381-2.163 1.381l-11.392 4.143v-3.063zM2.411 24.8c-2.533-0.727-2.952-2.224-1.803-3.095 1.068-0.78 2.879-1.401 2.879-1.401l7.488-2.684v3.084l-5.367 1.963c-0.94 0.361-1.1 0.843-0.319 1.101 0.781 0.26 2.183 0.2 3.124-0.16l2.584-0.941v2.765c-0.161 0.039-0.341 0.059-0.521 0.097-2.584 0.441-5.327 0.261-8.049-0.639z"></path>
</symbol>
<symbol id="icon-github" viewBox="0 0 32 32">
<path d="M16 0.395c-8.836 0-16 7.163-16 16 0 7.069 4.585 13.067 10.942 15.182 0.8 0.148 1.094-0.347 1.094-0.77 0-0.381-0.015-1.642-0.022-2.979-4.452 0.968-5.391-1.888-5.391-1.888-0.728-1.849-1.776-2.341-1.776-2.341-1.452-0.993 0.11-0.973 0.11-0.973 1.606 0.113 2.452 1.649 2.452 1.649 1.427 2.446 3.743 1.739 4.656 1.33 0.143-1.034 0.558-1.74 1.016-2.14-3.554-0.404-7.29-1.777-7.29-7.907 0-1.747 0.625-3.174 1.649-4.295-0.166-0.403-0.714-2.030 0.155-4.234 0 0 1.344-0.43 4.401 1.64 1.276-0.355 2.645-0.532 4.005-0.539 1.359 0.006 2.729 0.184 4.008 0.539 3.054-2.070 4.395-1.64 4.395-1.64 0.871 2.204 0.323 3.831 0.157 4.234 1.026 1.12 1.647 2.548 1.647 4.295 0 6.145-3.743 7.498-7.306 7.895 0.574 0.497 1.085 1.47 1.085 2.963 0 2.141-0.019 3.864-0.019 4.391 0 0.426 0.288 0.925 1.099 0.768 6.354-2.118 10.933-8.113 10.933-15.18 0-8.837-7.164-16-16-16z"></path>
</symbol>
<symbol id="icon-appleinc" viewBox="0 0 32 32">
<path d="M24.734 17.003c-0.040-4.053 3.305-5.996 3.454-6.093-1.88-2.751-4.808-3.127-5.851-3.171-2.492-0.252-4.862 1.467-6.127 1.467-1.261 0-3.213-1.43-5.28-1.392-2.716 0.040-5.221 1.579-6.619 4.012-2.822 4.897-0.723 12.151 2.028 16.123 1.344 1.944 2.947 4.127 5.051 4.049 2.026-0.081 2.793-1.311 5.242-1.311s3.138 1.311 5.283 1.271c2.18-0.041 3.562-1.981 4.897-3.931 1.543-2.255 2.179-4.439 2.216-4.551-0.048-0.022-4.252-1.632-4.294-6.473zM20.705 5.11c1.117-1.355 1.871-3.235 1.665-5.11-1.609 0.066-3.559 1.072-4.713 2.423-1.036 1.199-1.942 3.113-1.699 4.951 1.796 0.14 3.629-0.913 4.747-2.264z"></path>
</symbol>
<symbol id="icon-windows" viewBox="0 0 32 32">
<path d="M12.882 15.997c-1.491-0.766-2.94-1.155-4.309-1.155-0.186 0-0.373 0.006-0.561 0.022-1.746 0.145-3.341 0.605-4.367 0.963-0.272 0.1-0.551 0.205-0.838 0.322l-2.807 9.731c1.928-0.713 3.634-1.061 5.196-1.061 2.526 0 4.36 0.944 5.875 1.916 0.718-2.435 2.439-8.315 2.953-10.073-0.373-0.228-0.752-0.455-1.141-0.666zM16.511 18.471l-2.826 9.817c0.838 0.48 3.659 2.002 5.819 2.002 1.744 0 3.695-0.447 5.964-1.369l2.699-9.437c-1.832 0.591-3.59 0.891-5.233 0.891-2.998 0-5.097-0.972-6.422-1.905zM9.151 11.525c2.41 0.025 4.192 0.944 5.669 1.891l2.899-9.917c-0.611-0.35-2.213-1.222-3.371-1.519-0.762-0.178-1.563-0.269-2.413-0.269-1.619 0.030-3.387 0.436-5.403 1.244l-2.764 9.706c2.025-0.764 3.77-1.136 5.378-1.136 0.001 0 0.004 0 0.004 0zM32 6.191c-1.838 0.713-3.631 1.077-5.345 1.077-2.865 0-4.978-0.994-6.347-1.949l-2.873 9.945c1.93 1.241 4.009 1.871 6.191 1.871 1.78 0 3.623-0.427 5.483-1.271l-0.006-0.069 0.117-0.028 2.779-9.576z"></path>
</symbol>
<symbol id="icon-paypal" viewBox="0 0 32 32">
<path d="M29.063 9.644c-1.494 6.631-6.106 10.131-13.375 10.131h-2.419l-1.681 10.675h-2.025l-0.106 0.688c-0.069 0.456 0.281 0.863 0.738 0.863h5.175c0.613 0 1.131-0.444 1.231-1.050l0.050-0.262 0.975-6.181 0.063-0.337c0.094-0.606 0.619-1.050 1.231-1.050h0.769c5.012 0 8.938-2.038 10.088-7.925 0.431-2.238 0.269-4.137-0.712-5.55z"></path>
<path d="M25.969 2.413c-1.481-1.688-4.163-2.413-7.587-2.413h-9.944c-0.7 0-1.3 0.506-1.406 1.2l-4.144 26.262c-0.081 0.519 0.319 0.988 0.844 0.988h6.144l1.544-9.781-0.050 0.306c0.106-0.694 0.7-1.2 1.4-1.2h2.919c5.731 0 10.219-2.325 11.531-9.063 0.038-0.2 0.075-0.394 0.1-0.581 0.387-2.487 0-4.188-1.35-5.719z"></path>
</symbol>
<symbol id="cross" viewBox="0 0 32 32">
<path d="M23.734 10.304l-1.504-1.504-5.963 5.962-5.962-5.962-1.504 1.504 5.962 5.962-5.962 5.963 1.504 1.504 5.962-5.963 5.963 5.963 1.504-1.504-5.963-5.963 5.963-5.962z"></path>
</symbol>
<symbol id="menu" viewBox="0 0 32 32">
<path d="M6.4 11.734v-2.134h19.2v2.134h-19.2zM6.4 17.066h19.2v-2.133h-19.2v2.133zM6.4 22.4h19.2v-2.134h-19.2v2.134z"></path>
</symbol>
<symbol id="icon-apps" viewBox="0 0 24 24">
<path d="M15.984 20.016v-4.031h4.031v4.031h-4.031zM15.984 14.016v-4.031h4.031v4.031h-4.031zM9.984 8.016v-4.031h4.031v4.031h-4.031zM15.984 3.984h4.031v4.031h-4.031v-4.031zM9.984 14.016v-4.031h4.031v4.031h-4.031zM3.984 14.016v-4.031h4.031v4.031h-4.031zM3.984 20.016v-4.031h4.031v4.031h-4.031zM9.984 20.016v-4.031h4.031v4.031h-4.031zM3.984 8.016v-4.031h4.031v4.031h-4.031z"></path>
</symbol>
<symbol id="icon-sun" viewBox="0 0 32 32">
<path d="M8.031 16.5c0 4.143 3.358 7.5 7.5 7.5s7.5-3.357 7.5-7.5-3.357-7.5-7.5-7.5c-4.142 0-7.5 3.357-7.5 7.5zM15.531 3.75l-2.109 4.219h4.219l-2.11-4.219zM24.543 7.457l-4.475 1.491 2.982 2.983 1.493-4.474zM10.994 8.948l-4.474-1.491 1.491 4.475 2.983-2.984zM6.969 14.359l-4.219 2.11 4.219 2.109v-4.219zM24.031 18.641l4.219-2.109-4.219-2.109v4.218zM15.531 29.25l2.109-4.219h-4.219l2.11 4.219zM20.068 24.052l4.475 1.491-1.492-4.475-2.983 2.984zM6.52 25.543l4.475-1.491-2.983-2.983-1.492 4.474z"></path>
</symbol>
<symbol id="icon-moon" viewBox="0 0 32 32">
<path d="M10.895 7.574c0 7.55 5.179 13.67 11.567 13.67 1.588 0 3.101-0.38 4.479-1.063-1.695 4.46-5.996 7.636-11.051 7.636-6.533 0-11.83-5.297-11.83-11.83 0-4.82 2.888-8.959 7.023-10.803-0.116 0.778-0.188 1.573-0.188 2.39z"></path>
</symbol>
<symbol id="icon-arrow_forward" viewBox="0 0 24 24">
<path d="M5.859 4.125l2.156-2.109 9.984 9.984-9.984 9.984-2.156-2.109 7.922-7.875z"></path>
</symbol>
</defs>
</svg>
